<?xml version="1.0" encoding="UTF-8"?>
<svg width="50px" height="50px" viewBox="0 0 50 50" version="1.1" xmlns="http://www.w3.org/2000/svg" xmlns:xlink="http://www.w3.org/1999/xlink">
    <!-- Generator: Sketch 41.1 (35376) - http://www.bohemiancoding.com/sketch -->
    <title>Mask</title>
    <desc>Created with Sketch.</desc>
    <defs>
        <rect id="path-1" x="0" y="0" width="50" height="50"></rect>
        <circle id="path-3" cx="20" cy="28" r="3"></circle>
        <mask id="mask-4" maskContentUnits="userSpaceOnUse" maskUnits="objectBoundingBox" x="0" y="0" width="6" height="6" fill="white">
            <use xlink:href="#path-3"></use>
        </mask>
    </defs>
    <g id="Page-1" stroke="none" stroke-width="1" fill="none" fill-rule="evenodd">
        <g id="landing-page" transform="translate(-250.000000, -1796.000000)">
            <g id="services" transform="translate(0.000000, 1597.000000)">
                <g transform="translate(250.000000, 90.000000)" id="highlights">
                    <g transform="translate(0.000000, 109.000000)">
                        <g id="service">
                            <g id="Wifi">
                                <g id="Icon">
                                    <mask id="mask-2" fill="white">
                                        <use xlink:href="#path-1"></use>
                                    </mask>
                                    <use id="Mask" fill-opacity="0" fill="#D8D8D8" xlink:href="#path-1"></use>
                                    <g mask="url(#mask-2)">
                                        <g transform="translate(5.000000, 10.000000)">
                                            <g id="Waves" stroke="none" stroke-width="1" fill-rule="evenodd">
                                                <path d="M0.40194388,8.00208273 C5.45227699,3.05210803 12.3697095,0 20,0 C27.6302905,0 34.547723,3.05210803 39.5980561,8.00208273 L38.9155265,8.7333645 C34.0440568,3.95012213 27.3665474,1 20,1 C12.6334526,1 5.95594316,3.95012213 1.08447354,8.7333645 L0.40194388,8.00208273 Z" id="Wave" fill="#000000"></path>
                                                <path d="M5.86276642,13.852964 C9.48166657,10.2365557 14.4796455,8 20,8 C25.5203545,8 30.5183334,10.2365557 34.1372336,13.852964 L33.4544971,14.5844674 C30.0146463,11.1346884 25.2566148,9 20,9 C14.7433852,9 9.98535366,11.1346884 6.54550295,14.5844674 L5.86276642,13.852964 Z" id="Wave" fill="#000000"></path>
                                                <path d="M11.3266023,19.7070739 C13.5113417,17.4227387 16.5895216,16 20,16 C23.4104784,16 26.4886583,17.4227387 28.6733977,19.7070739 L27.989878,20.4394164 C25.984903,18.321325 23.1467575,17 20,17 C16.8532425,17 14.015097,18.321325 12.010122,20.4394164 L11.3266023,19.7070739 Z" id="Combined-Shape" fill="#000000"></path>
                                            </g>
                                            <use id="Dot" stroke="#000000" mask="url(#mask-4)" stroke-width="2" xlink:href="#path-3"></use>
                                        </g>
                                    </g>
                                </g>
                            </g>
                        </g>
                    </g>
                </g>
            </g>
        </g>
    </g>
</svg>