<?xml version="1.0" encoding="UTF-8"?>
<svg width="80px" height="80px" viewBox="0 0 80 80" version="1.1" xmlns="http://www.w3.org/2000/svg" xmlns:xlink="http://www.w3.org/1999/xlink">
    <!-- Generator: Sketch 41.1 (35376) - http://www.bohemiancoding.com/sketch -->
    <title>af</title>
    <desc>Created with Sketch.</desc>
    <defs></defs>
    <g id="Page-1" stroke="none" stroke-width="1" fill="none" fill-rule="evenodd">
        <g id="landing-page" transform="translate(-250.000000, -2211.000000)">
            <g id="links" transform="translate(250.000000, 2147.000000)">
                <g transform="translate(0.000000, 64.000000)" id="link">
                    <g>
                        <g id="af">
                            <rect id="img" fill="#148DE7" x="0" y="0" width="80" height="80" rx="6"></rect>
                            <g id="Caisse_d_allocations_familiales_france_logo" transform="translate(10.000000, 10.000000)">
                                <g id="Group">
                                    <rect id="Rectangle-path" x="0.178285714" y="0.183428571" width="59.5178571" height="59.5178571"></rect>
                                    <rect id="Rectangle-path" fill="#158DE6" x="0.182142857" y="0.183428571" width="59.5242857" height="59.5178571"></rect>
                                    <path d="M21.5764286,23.4372857 L21.9848571,23.2097143 L21.2305714,23.2097143 C21.3578571,23.2924286 21.4752857,23.3691429 21.5764286,23.4372857" id="Shape" fill="#9CB4DA"></path>
                                    <path d="M27.8018571,26.2144286 C27.4731429,26.094 27.216,25.8445714 27.0784286,25.5111429 C27.0557143,25.4575714 27.0381429,25.4022857 27.0231429,25.3452857 C26.8512857,25.5201429 26.6541429,25.6752857 26.4321429,25.7991429 L24.4568571,26.898 L27.5832857,26.898 C27.6458571,26.6618571 27.738,26.4385714 27.8571429,26.2307143 L27.8018571,26.2144286" id="Shape" fill="#9CB4DA"></path>
                                    <path d="M33.8237143,25.7708571 C33.6218571,25.6375714 33.4504286,25.4695714 33.3115714,25.278 C33.267,25.4134286 33.2044286,25.5458571 33.1217143,25.6645714 C32.8572857,26.0485714 32.4535714,26.2662857 32.0451429,26.2881429 C32.1145714,26.4822857 32.1574286,26.6875714 32.1767143,26.8984286 L35.3978571,26.8984286 C35.4021429,26.8692857 35.4055714,26.8405714 35.4094286,26.8114286 L33.8237143,25.7708571" id="Shape" fill="#9CB4DA"></path>
                                    <path d="M45.1457143,23.2092857 C45.2978571,24.2044286 44.79,25.2711429 43.8415714,25.7982857 C43.8415714,25.7991429 42.5434286,26.5217143 41.8654286,26.898 L54.648,26.898 L54.648,23.2092857 L45.1457143,23.2092857" id="Shape" fill="#7BC7FF"></path>
                                    <path d="M18.0004286,26.8114286 L16.4138571,25.7708571 C15.9497143,25.4644286 15.6368571,24.9814286 15.5305714,24.4097143 C15.4581429,24.0145714 15.4894286,23.601 15.6175714,23.2092857 L5.29371429,23.2092857 L5.29371429,26.898 L17.9884286,26.898 C17.9922857,26.8688571 17.9965714,26.8405714 18.0004286,26.8114286" id="Shape" fill="#7BC7FF"></path>
                                    <path d="M38.6391429,23.2092857 C38.7681429,23.292 38.8834286,23.3691429 38.985,23.4368571 L39.3942857,23.2092857 L38.6391429,23.2092857" id="Shape" fill="#9CB4DA"></path>
                                    <path d="M32.1304286,5.12871429 C33.288,5.12871429 34.362,4.20814286 34.5287143,3.07071429 C34.6962857,1.93542857 33.8918571,1.01314286 32.7338571,1.01314286 C31.578,1.01314286 30.5022857,1.935 30.3355714,3.07071429 C30.1684286,4.20814286 30.972,5.12871429 32.1304286,5.12871429" id="Shape" fill="#FFFFFF"></path>
                                    <path d="M39.3531429,4.32128571 C38.9395714,3.38485714 37.7678571,3.06514286 36.7367143,3.60557143 L31.998,6.087 L27.9908571,3.60557143 C27.117,3.06514286 25.8505714,3.38485714 25.1622857,4.32128571 C24.4744286,5.25728571 24.6265714,6.45385714 25.4991429,6.99428571 L28.2762857,8.70385714 L27.5575714,13.5981429 C27.5395714,13.7241429 27.552,13.8518571 27.6034286,13.968 C27.7598571,14.3228571 28.206,14.4441429 28.5968571,14.2392857 L30.9852857,12.9895714 L33.0051429,14.2392857 C33.3364286,14.4445714 33.8172857,14.3228571 34.0782857,13.968 C34.1635714,13.8518571 34.2145714,13.7241429 34.2347143,13.5981429 L34.9521429,8.70385714 L38.2298571,6.99428571 C39.2635714,6.45342857 39.7658571,5.25685714 39.3531429,4.32128571" id="Shape" fill="#FFFFFF"></path>
                                    <path d="M30.1247143,18.7937143 C31.281,18.7937143 32.355,17.8714286 32.523,16.7357143 C32.6888571,15.5995714 31.8861429,14.6777143 30.7281429,14.6777143 C29.5701429,14.6777143 28.4965714,15.5991429 28.3298571,16.7357143 C28.1631429,17.8714286 28.9654286,18.7937143 30.1247143,18.7937143" id="Shape" fill="#FFFFFF"></path>
                                    <path d="M37.3478571,17.9854286 C36.9342857,17.0494286 35.7625714,16.7288571 34.7297143,17.2688571 L29.9927143,19.7511429 L25.9847143,17.2688571 C25.1108571,16.7288571 23.8444286,17.0494286 23.1565714,17.9854286 C22.4687143,18.9214286 22.62,20.1184286 23.4934286,20.6567143 L26.2701429,22.3675714 L25.5505714,27.2618571 C25.533,27.3891429 25.5471429,27.5155714 25.5981429,27.6317143 C25.7545714,27.9865714 26.1994286,28.1078571 26.5915714,27.9038571 L28.9791429,26.6524286 L30.9985714,27.9038571 C31.3307143,28.1082857 31.8111429,27.9865714 32.0708571,27.6317143 C32.1561429,27.5155714 32.2088571,27.3891429 32.2264286,27.2618571 L32.9455714,22.3675714 L36.2241429,20.6567143 C37.2582857,20.1184286 37.7601429,18.9214286 37.3478571,17.9854286" id="Shape" fill="#FFFFFF"></path>
                                    <path d="M19.1262857,11.964 C20.2838571,11.964 21.3578571,11.0434286 21.5245714,9.906 C21.6921429,8.77071429 20.8877143,7.848 19.7301429,7.848 C18.5721429,7.848 17.4985714,8.77028571 17.3314286,9.906 C17.1647143,11.043 17.9682857,11.964 19.1262857,11.964" id="Shape" fill="#FFFFFF"></path>
                                    <path d="M26.3494286,11.1557143 C25.9362857,10.2197143 24.7641429,9.9 23.7317143,10.44 L18.9942857,12.9227143 L14.9871429,10.44 C14.1132857,9.9 12.8464286,10.2197143 12.1585714,11.1557143 C11.4715714,12.0917143 11.622,13.2891429 12.4954286,13.8291429 L15.2721429,15.5391429 L14.5538571,20.4334286 C14.5358571,20.5585714 14.55,20.6862857 14.601,20.8028571 C14.757,21.1577143 15.2027143,21.2785714 15.5935714,21.0737143 L17.9815714,19.824 L20.0022857,21.0737143 C20.3344286,21.279 20.814,21.1577143 21.0745714,20.8028571 C21.1594286,20.6862857 21.2104286,20.5585714 21.2297143,20.4334286 L21.9484286,15.5391429 L25.2274286,13.8291429 C26.2598571,13.2887143 26.7621429,12.0912857 26.3494286,11.1557143" id="Shape" fill="#FFFFFF"></path>
                                    <path d="M17.1192857,25.6285714 C18.2781429,25.6285714 19.3512857,24.7071429 19.5184286,23.5701429 C19.6855714,22.434 18.8824286,21.513 17.7248571,21.513 C16.5668571,21.513 15.4928571,22.434 15.3257143,23.5701429 C15.159,24.7067143 15.9617143,25.6285714 17.1192857,25.6285714" id="Shape" fill="#FFFFFF"></path>
                                    <path d="M24.3432857,24.8198571 C23.9301429,23.8847143 22.7584286,23.5641429 21.7264286,24.105 L16.9885714,26.586 L12.9801429,24.105 C12.1062857,23.5641429 10.8402857,23.8847143 10.1524286,24.8198571 C9.46457143,25.7558571 9.61542857,26.9528571 10.4892857,27.4915714 L13.266,29.2032857 L12.5472857,34.0984286 C12.5292857,34.2231429 12.5434286,34.3504286 12.5948571,34.4674286 C12.7512857,34.8214286 13.1957143,34.9435714 13.5878571,34.7387143 L15.9745714,33.4881429 L17.9952857,34.7387143 C18.327,34.944 18.8082857,34.8214286 19.068,34.4674286 C19.1541429,34.3504286 19.2051429,34.2231429 19.2244286,34.0984286 L19.9431429,29.2032857 L23.2212857,27.4915714 C24.2541429,26.9528571 24.7564286,25.7558571 24.3432857,24.8198571" id="Shape" fill="#FFFFFF"></path>
                                    <path d="M43.1335714,11.964 C41.9768571,11.964 41.1715714,11.0434286 41.3387143,9.906 C41.5054286,8.77071429 42.5794286,7.848 43.7378571,7.848 C44.8954286,7.848 45.699,8.77028571 45.5327143,9.906 C45.3642857,11.043 44.2911429,11.964 43.1335714,11.964" id="Shape" fill="#FFFFFF"></path>
                                    <path d="M36.1474286,11.1557143 C36.8352857,10.2197143 38.1021429,9.9 38.9751429,10.44 L42.984,12.9227143 L47.7218571,10.44 C48.7538571,9.9 49.926,10.2197143 50.3382857,11.1557143 C50.7505714,12.0917143 50.2487143,13.2891429 49.2167143,13.8291429 L45.9372857,15.5391429 L45.219,20.4334286 C45.2005714,20.5585714 45.1504286,20.6862857 45.0642857,20.8028571 C44.8024286,21.1577143 44.322,21.2785714 43.9902857,21.0737143 L41.9695714,19.824 L39.5824286,21.0737143 C39.1924286,21.279 38.7462857,21.1577143 38.5898571,20.8028571 C38.5388571,20.6862857 38.5247143,20.5585714 38.5431429,20.4334286 L39.2622857,15.5391429 L36.4855714,13.8291429 C35.61,13.2887143 35.46,12.0912857 36.1474286,11.1557143" id="Shape" fill="#FFFFFF"></path>
                                    <path d="M41.1278571,25.6285714 C39.9694286,25.6285714 39.1658571,24.7071429 39.333,23.5701429 C39.4997143,22.434 40.5741429,21.513 41.7321429,21.513 C42.8901429,21.513 43.6924286,22.434 43.527,23.5701429 C43.3585714,24.7067143 42.2854286,25.6285714 41.1278571,25.6285714" id="Shape" fill="#FFFFFF"></path>
                                    <path d="M34.1417143,24.8198571 C34.8291429,23.8847143 36.0947143,23.5641429 36.9694286,24.105 L40.9765714,26.586 L45.7144286,24.105 C46.7472857,23.5641429 47.9194286,23.8847143 48.3317143,24.8198571 C48.7452857,25.7558571 48.243,26.9528571 47.2101429,27.4915714 L43.9315714,29.2032857 L43.2124286,34.0984286 C43.1948571,34.2231429 43.1447143,34.3504286 43.0585714,34.4674286 C42.7967143,34.8214286 42.3171429,34.9435714 41.9845714,34.7387143 L39.9638571,33.4881429 L37.5767143,34.7387143 C37.185,34.944 36.7414286,34.8214286 36.5841429,34.4674286 C36.5322857,34.3504286 36.519,34.2231429 36.5374286,34.0984286 L37.2557143,29.2032857 L34.4785714,27.4915714 C33.6042857,26.9528571 33.453,25.7558571 34.1417143,24.8198571" id="Shape" fill="#FFFFFF"></path>
                                    <path d="M28.1177143,32.4578571 C29.2757143,32.4578571 30.3492857,31.5364286 30.5172857,30.3994286 C30.6831429,29.2628571 29.8791429,28.3418571 28.7215714,28.3418571 C27.564,28.3418571 26.49,29.2624286 26.3228571,30.3994286 C26.1557143,31.5364286 26.9601429,32.4578571 28.1177143,32.4578571" id="Shape" fill="#FFFFFF"></path>
                                    <path d="M35.3404286,31.6504286 C34.9277143,30.7144286 33.756,30.3938571 32.724,30.9338571 L27.987,33.4174286 L23.979,30.9338571 C23.1051429,30.3938571 21.8378571,30.7144286 21.15,31.6504286 C20.4625714,32.5855714 20.613,33.7825714 21.4877143,34.3221429 L24.2644286,36.0312857 L23.5457143,40.9272857 C23.5277143,41.0537143 23.5405714,41.1801429 23.5924286,41.2962857 C23.7492857,41.6511429 24.1928571,41.7724286 24.5854286,41.5675714 L26.9725714,40.3178571 L28.9932857,41.5675714 C29.3237143,41.7728571 29.8054286,41.6511429 30.0664286,41.2962857 C30.1508571,41.1801429 30.2031429,41.0537143 30.222,40.9272857 L30.9402857,36.0312857 L34.218,34.3221429 C35.2517143,33.7821429 35.7548571,32.5851429 35.3404286,31.6504286" id="Shape" fill="#FFFFFF"></path>
                                    <path d="M4.92042857,46.0491429 L4.56942857,44.1265714 L3.45128571,46.0491429 L4.92042857,46.0491429 L4.92042857,46.0491429 Z M3.13971429,46.5548571 C2.81314286,47.1801429 2.51571429,47.6931429 2.256,48.2631429 C2.12914286,48.2541429 2.01171429,48.2365714 1.88314286,48.2365714 C1.755,48.2365714 1.62342857,48.2541429 1.49271429,48.2631429 L4.869,42.5417143 C4.97014286,42.5584286 5.06528571,42.567 5.16942857,42.567 C5.27357143,42.567 5.37085714,42.5584286 5.47928571,42.5417143 L6.63385714,48.279 C6.40371429,48.2631429 6.18385714,48.2361429 5.95071429,48.2361429 C5.71757143,48.2361429 5.48871429,48.2627143 5.253,48.279 C5.18357143,47.6687143 5.12228571,47.1072857 5.00914286,46.5548571 L3.13971429,46.5548571 L3.13971429,46.5548571 Z" id="Shape" fill="#FFFFFF"></path>
                                    <path d="M8.86371429,47.643 C9.56271429,47.643 10.1678571,47.5842857 10.7232857,47.5281429 C10.6855714,47.643 10.6384286,47.7668571 10.6161429,47.883 C10.5942857,47.9987143 10.5951429,48.1217143 10.5895714,48.2361429 L7.548,48.2361429 L8.61085714,42.6154286 C8.80842857,42.6321429 9.00385714,42.6574286 9.20442857,42.6574286 C9.40457143,42.6574286 9.61071429,42.6321429 9.81471429,42.6154286 L8.86371429,47.643" id="Shape" fill="#FFFFFF"></path>
                                    <path d="M13.0375714,47.643 C13.7352857,47.643 14.34,47.5842857 14.8962857,47.5281429 C14.859,47.643 14.8114286,47.7668571 14.79,47.883 C14.7681429,47.9987143 14.7681429,48.1217143 14.7617143,48.2361429 L11.7214286,48.2361429 L12.7834286,42.6154286 C12.9818571,42.6321429 13.1772857,42.6574286 13.3778571,42.6574286 C13.5784286,42.6574286 13.7832857,42.6321429 13.9877143,42.6154286 L13.0375714,47.643" id="Shape" fill="#FFFFFF"></path>
                                    <path d="M17.3087143,45.6792857 C17.1055714,46.7507143 17.3631429,47.8907143 18.5674286,47.8907143 C19.803,47.8907143 20.5967143,46.62 20.856,45.249 C21.057,44.1852857 20.8058571,42.9621429 19.6037143,42.9621429 C18.4872857,42.9621429 17.6575714,43.8295714 17.3087143,45.6792857 L17.3087143,45.6792857 Z M18.4337143,48.3852857 C16.6607143,48.3852857 15.6681429,47.313 16.0221429,45.4388571 C16.3324286,43.7957143 17.7471429,42.468 19.7442857,42.468 C22.032,42.468 22.392,44.1261429 22.1575714,45.4058571 C21.8618571,47.016 20.3991429,48.3852857 18.4337143,48.3852857 L18.4337143,48.3852857 Z" id="Shape" fill="#FFFFFF"></path>
                                    <path d="M27.219,47.3207143 L26.9074286,48.0304286 C26.3777143,48.2875714 25.7901429,48.3852857 25.2522857,48.3852857 C23.535,48.3852857 22.4404286,47.2971429 22.7614286,45.6047143 C23.1672857,43.4494286 24.798,42.4684286 26.5465714,42.4684286 C27.0762857,42.4684286 27.6925714,42.6081429 28.1078571,42.8725714 C27.9827143,43.1528571 27.882,43.4335714 27.7624286,43.7228571 L27.6497143,43.7228571 C27.4375714,43.2767143 26.9824286,42.9621429 26.4621429,42.9621429 C25.1292857,42.9621429 24.3441429,44.2752857 24.114,45.4885714 C23.8478571,46.8998571 24.3351429,47.8907143 25.5694286,47.8907143 C26.0674286,47.8907143 26.6952857,47.628 27.1234286,47.2714286 L27.219,47.3207143" id="Shape" fill="#FFFFFF"></path>
                                    <path d="M31.0941429,46.0491429 L30.7435714,44.1265714 L29.6258571,46.0491429 L31.0941429,46.0491429 L31.0941429,46.0491429 Z M29.3147143,46.5548571 C28.9864286,47.1801429 28.6898571,47.6931429 28.4288571,48.2631429 C28.3028571,48.2541429 28.1854286,48.2365714 28.0572857,48.2365714 C27.9291429,48.2365714 27.7971429,48.2541429 27.6672857,48.2631429 L31.044,42.5417143 C31.1442857,42.5584286 31.2398571,42.567 31.3435714,42.567 C31.4464286,42.567 31.5454286,42.5584286 31.6517143,42.5417143 L32.8075714,48.279 C32.5774286,48.2631429 32.3588571,48.2361429 32.1252857,48.2361429 C31.8917143,48.2361429 31.6632857,48.2627143 31.4271429,48.279 C31.3585714,47.6687143 31.2947143,47.1072857 31.1828571,46.5548571 L29.3147143,46.5548571 L29.3147143,46.5548571 Z" id="Shape" fill="#FFFFFF"></path>
                                    <path d="M35.9772857,48.279 C35.7797143,48.2631429 35.5838571,48.2361429 35.382,48.2361429 C35.1818571,48.2361429 34.977,48.2627143 34.7742857,48.279 L35.7325714,43.2021429 C35.1634286,43.2021429 34.647,43.2591429 34.2184286,43.3178571 C34.2561429,43.2021429 34.3011429,43.0868571 34.3255714,42.9621429 C34.3482857,42.8464286 34.344,42.732 34.35,42.6154286 L38.4827143,42.6154286 C38.4458571,42.7315714 38.4008571,42.8464286 38.3772857,42.9621429 C38.3537143,43.0868571 38.358,43.2025714 38.352,43.3178571 C37.8891429,43.2591429 37.4254286,43.2021429 36.9355714,43.2021429 L35.9772857,48.279" id="Shape" fill="#FFFFFF"></path>
                                    <path d="M39.5425714,42.6158571 C39.7401429,42.6325714 39.936,42.6578571 40.1361429,42.6578571 C40.3371429,42.6578571 40.542,42.6325714 40.7464286,42.6158571 L39.6758571,48.2794286 C39.4791429,48.2635714 39.2815714,48.2365714 39.0822857,48.2365714 C38.8812857,48.2365714 38.6755714,48.2631429 38.4728571,48.2794286 L39.5425714,42.6158571" id="Shape" fill="#FFFFFF"></path>
                                    <path d="M42.5558571,45.6792857 C42.3531429,46.7507143 42.6111429,47.8907143 43.8154286,47.8907143 C45.051,47.8907143 45.8442857,46.62 46.104,45.249 C46.3058571,44.1852857 46.0555714,42.9621429 44.8508571,42.9621429 C43.7361429,42.9621429 42.9055714,43.8295714 42.5558571,45.6792857 L42.5558571,45.6792857 Z M43.6808571,48.3852857 C41.9087143,48.3852857 40.9161429,47.313 41.2692857,45.4388571 C41.58,43.7957143 42.9942857,42.468 44.9931429,42.468 C47.28,42.468 47.6391429,44.1261429 47.4047143,45.4058571 C47.1102857,47.016 45.648,48.3852857 43.6808571,48.3852857 L43.6808571,48.3852857 Z" id="Shape" fill="#FFFFFF"></path>
                                    <path d="M49.0397143,42.6158571 L49.8334286,42.6158571 C50.7308571,43.8955714 51.69,45.1504286 52.5707143,46.4798571 L53.3005714,42.6158571 C53.4025714,42.6325714 53.5114286,42.6411429 53.616,42.6411429 C53.7205714,42.6411429 53.8354286,42.6325714 53.9417143,42.6158571 L52.872,48.2794286 L52.1914286,48.2708571 C51.4624286,47.2062857 50.7878571,46.1901429 50.067,45.2082857 L49.3697143,44.2667143 L48.6137143,48.2635714 C48.5125714,48.2545714 48.4011429,48.237 48.2991429,48.237 C48.1945714,48.237 48.078,48.2545714 47.9734286,48.2635714 L49.0397143,42.6158571" id="Shape" fill="#FFFFFF"></path>
                                    <path d="M57.6711429,43.6812857 C57.5948571,43.2428571 57.3411429,42.9621429 56.8834286,42.9621429 C56.2495714,42.9621429 55.9367143,43.302 55.8488571,43.7717143 C55.638,44.8868571 58.1172857,44.6807143 57.759,46.5698571 C57.5597143,47.628 56.5337143,48.3861429 55.2895714,48.3861429 C54.8485714,48.3861429 54.3955714,48.279 54.0642857,48.0304286 C54.2258571,47.6845714 54.3805714,47.3382857 54.4962857,46.9817143 L54.648,46.9817143 C54.6604286,47.5534286 55.0307143,47.8907143 55.5848571,47.8907143 C56.082,47.8907143 56.5774286,47.601 56.6845714,47.0327143 C56.9348571,45.7118571 54.4538571,46.1897143 54.8297143,44.2024286 C55.0088571,43.2505714 55.7905714,42.468 57.0111429,42.468 C57.588,42.468 58.0598571,42.6908571 58.203,42.8631429 C58.0581429,43.1275714 57.9252857,43.3997143 57.7911429,43.6808571 L57.6711429,43.6808571" id="Shape" fill="#FFFFFF"></path>
                                    <path d="M5.61942857,56.7201429 C5.39014286,56.7025714 5.16342857,56.6764286 4.93071429,56.6764286 C4.698,56.6764286 4.46014286,56.7025714 4.22271429,56.7201429 L5.46471429,50.8774286 L9.012,50.8774286 C8.96742857,50.9961429 8.913,51.1234286 8.88685714,51.2425714 C8.862,51.3612857 8.86285714,51.4894286 8.856,51.6085714 C8.301,51.549 7.70828571,51.4898571 6.73114286,51.4898571 L6.342,53.3211429 L7.32771429,53.3211429 C7.69114286,53.3211429 8.07085714,53.2868571 8.47071429,53.244 C8.42657143,53.3644286 8.37214286,53.4917143 8.34685714,53.6112857 C8.322,53.73 8.322,53.8581429 8.316,53.9772857 C7.932,53.943 7.56814286,53.901 7.19614286,53.901 L6.21814286,53.901 L5.61942857,56.7201429" id="Shape" fill="#FFFFFF"></path>
                                    <path d="M12.2811429,54.4195714 L11.8744286,52.4348571 L10.5784286,54.4195714 L12.2811429,54.4195714 L12.2811429,54.4195714 Z M10.2167143,54.9394286 C9.837,55.5874286 9.492,56.1145714 9.18985714,56.7021429 C9.04285714,56.6935714 8.90657143,56.676 8.75785714,56.676 C8.60914286,56.676 8.45614286,56.6935714 8.30571429,56.7021429 L12.222,50.8007143 C12.339,50.8157143 12.4491429,50.826 12.57,50.826 C12.6912857,50.826 12.8048571,50.8161429 12.93,50.8007143 L14.2692857,56.7197143 C14.0031429,56.7021429 13.7485714,56.676 13.4785714,56.676 C13.2085714,56.676 12.9424286,56.7021429 12.6685714,56.7197143 C12.5884286,56.0884286 12.5155714,55.5111429 12.3852857,54.9394286 L10.2167143,54.9394286 L10.2167143,54.9394286 Z" id="Shape" fill="#FFFFFF"></path>
                                    <path d="M22.3542857,50.8774286 C22.4798571,50.895 22.605,50.9202857 22.7361429,50.9202857 C22.866,50.9202857 23.0108571,50.895 23.145,50.8774286 C22.947,53.1677143 22.767,55.0251429 22.7228571,56.7201429 C22.4657143,56.7025714 22.2197143,56.6764286 21.9595714,56.6764286 C21.6985714,56.6764286 21.4607143,56.7025714 21.1962857,56.7201429 C21.4092857,55.3667143 21.5005714,54.0625714 21.639,52.7498571 C20.6545714,54.054 19.6795714,55.3564286 18.7375714,56.6764286 C18.621,56.6588571 18.5104286,56.6511429 18.3848571,56.6764286 C18.039,55.5012857 17.5838571,54.1821429 17.16,52.8445714 C16.6272857,54.3445714 16.2274286,55.5265714 15.9454286,56.7201429 C15.8005714,56.7025714 15.6668571,56.6764286 15.5177143,56.6764286 C15.3681429,56.6764286 15.2327143,56.7025714 15.0805714,56.7201429 C15.7791429,55.0075714 16.4965714,53.0314286 17.271,50.8774286 C17.3978571,50.895 17.5127143,50.9202857 17.643,50.9202857 C17.7737143,50.9202857 17.9095714,50.895 18.0437143,50.8774286 C18.4294286,52.215 18.8824286,53.5427143 19.3345714,54.8802857 C20.2607143,53.6695714 21.3364286,52.3337143 22.3542857,50.8774286" id="Shape" fill="#FFFFFF"></path>
                                    <path d="M25.3131429,50.8774286 C25.5424286,50.895 25.7691429,50.9202857 26.0031429,50.9202857 C26.235,50.9202857 26.4732857,50.895 26.7098571,50.8774286 L25.4678571,56.7201429 C25.2394286,56.7025714 25.0122857,56.6764286 24.7791429,56.6764286 C24.5464286,56.6764286 24.3085714,56.7025714 24.0715714,56.7201429 L25.3131429,50.8774286" id="Shape" fill="#FFFFFF"></path>
                                    <path d="M28.6958571,56.0635714 C29.5071429,56.0635714 30.2078571,56.0031429 30.8532857,55.9431429 C30.8104286,56.0635714 30.7547143,56.1917143 30.7302857,56.3104286 C30.7041429,56.4291429 30.705,56.5572857 30.6968571,56.6764286 L27.1701429,56.6764286 L28.4022857,50.8774286 C28.632,50.895 28.8591429,50.9202857 29.0918571,50.9202857 C29.3237143,50.9202857 29.5624286,50.895 29.7985714,50.8774286 L28.6958571,56.0635714" id="Shape" fill="#FFFFFF"></path>
                                    <path d="M33.252,50.8774286 C33.4812857,50.895 33.7088571,50.9202857 33.9398571,50.9202857 C34.1734286,50.9202857 34.413,50.895 34.6487143,50.8774286 L33.4075714,56.7201429 C33.1774286,56.7025714 32.9507143,56.6764286 32.718,56.6764286 C32.4852857,56.6764286 32.2474286,56.7025714 32.01,56.7201429 L33.252,50.8774286" id="Shape" fill="#FFFFFF"></path>
                                    <path d="M38.4552857,54.4195714 L38.0485714,52.4348571 L36.753,54.4195714 L38.4552857,54.4195714 L38.4552857,54.4195714 Z M36.3891429,54.9394286 C36.0098571,55.5874286 35.6657143,56.1145714 35.3635714,56.7021429 C35.2161429,56.6935714 35.0807143,56.676 34.9298571,56.676 C34.7815714,56.676 34.6294286,56.6935714 34.4785714,56.7021429 L38.3944286,50.8007143 C38.5122857,50.8157143 38.6228571,50.826 38.7441429,50.826 C38.8645714,50.826 38.9785714,50.8161429 39.1032857,50.8007143 L40.4425714,56.7197143 C40.1764286,56.7021429 39.9201429,56.676 39.6497143,56.676 C39.3801429,56.676 39.1148571,56.7021429 38.841,56.7197143 C38.7612857,56.0884286 38.6888571,55.5111429 38.5581429,54.9394286 L36.3891429,54.9394286 L36.3891429,54.9394286 Z" id="Shape" fill="#FFFFFF"></path>
                                    <path d="M42.9368571,56.0635714 C43.7481429,56.0635714 44.4492857,56.0031429 45.0947143,55.9431429 C45.051,56.0635714 44.9965714,56.1917143 44.97,56.3104286 C44.9447143,56.4291429 44.9464286,56.5572857 44.9391429,56.6764286 L41.4111429,56.6764286 L42.6424286,50.8774286 C42.8725714,50.895 43.0992857,50.9202857 43.3328571,50.9202857 C43.5664286,50.9202857 43.8034286,50.895 44.0408571,50.8774286 L42.9368571,56.0635714" id="Shape" fill="#FFFFFF"></path>
                                    <path d="M51.0141429,50.8774286 C50.9691429,50.9961429 50.913,51.1234286 50.8885714,51.2425714 C50.8632857,51.3612857 50.8632857,51.4894286 50.8577143,51.6085714 C50.3052857,51.5417143 49.686,51.4731429 48.7307143,51.4898571 L48.3432857,53.3211429 L49.311,53.3211429 C49.731,53.3211429 50.1197143,53.2868571 50.4728571,53.244 C50.4282857,53.3644286 50.3734286,53.4917143 50.3481429,53.6112857 C50.3237143,53.73 50.3237143,53.8581429 50.3172857,53.9772857 C49.9834286,53.9352857 49.6084286,53.901 49.188,53.901 L48.2194286,53.901 L47.76,56.064 C48.7118571,56.0562857 49.3547143,56.013 49.9362857,55.9435714 C49.8925714,56.064 49.8377143,56.1921429 49.8132857,56.3108571 C49.7867143,56.4295714 49.7871429,56.5577143 49.7798571,56.6768571 L46.2334286,56.6768571 L47.4664286,50.8778571 L51.0141429,50.8778571" id="Shape" fill="#FFFFFF"></path>
                                    <path d="M54.951,51.9754286 C54.8588571,51.5232857 54.5682857,51.234 54.0377143,51.234 C53.3018571,51.234 52.9397143,51.5837143 52.8355714,52.0692857 C52.5904286,53.2195714 55.4665714,53.0052857 55.0521429,54.9561429 C54.8194286,56.046 53.6301429,56.8311429 52.1875714,56.8311429 C51.6745714,56.8311429 51.1487143,56.7197143 50.7655714,56.4638571 C50.9537143,56.1064286 51.132,55.749 51.2652857,55.3825714 L51.4435714,55.3825714 C51.4577143,55.9701429 51.8862857,56.3185714 52.5291429,56.3185714 C53.1051429,56.3185714 53.6811429,56.0215714 53.8062857,55.4348571 C54.0951429,54.0711429 51.2155714,54.5652857 51.6518571,52.5128571 C51.861,51.5327143 52.7678571,50.724 54.183,50.724 C54.8524286,50.724 55.3992857,50.9541429 55.566,51.1332857 C55.3962857,51.4045714 55.2445714,51.6857143 55.089,51.9762857 L54.951,51.9762857" id="Shape" fill="#FFFFFF"></path>
                                </g>
                            </g>
                        </g>
                    </g>
                </g>
            </g>
        </g>
    </g>
</svg>