<?xml version="1.0" encoding="UTF-8"?>
<svg width="119px" height="37px" viewBox="0 0 119 37" version="1.1" xmlns="http://www.w3.org/2000/svg" xmlns:xlink="http://www.w3.org/1999/xlink">
    <!-- Generator: Sketch 41.1 (35376) - http://www.bohemiancoding.com/sketch -->
    <title>direction</title>
    <desc>Created with Sketch.</desc>
    <defs></defs>
    <g id="Page-1" stroke="none" stroke-width="1" fill="none" fill-rule="evenodd">
        <g id="landing-page" transform="translate(-263.000000, -247.000000)">
            <g id="hero" transform="translate(247.000000, 30.000000)">
                <g id="map" transform="translate(3.000000, 153.000000)">
                    <g id="direction" transform="translate(13.000000, 64.000000)">
                        <rect id="bg" fill="#000000" opacity="0.400000006" x="0" y="0" width="119" height="37" rx="4"></rect>
                        <path d="M35.835,22.695 L37.53,22.695 C38.740006,22.695 39.6724967,22.3500035 40.3275,21.66 C40.9825033,20.9699966 41.31,20.022506 41.31,18.8175 C41.31,17.612494 40.9825033,16.6675034 40.3275,15.9825 C39.6724967,15.2974966 38.740006,14.955 37.53,14.955 L35.835,14.955 L35.835,22.695 Z M37.53,13.575 C39.2100084,13.575 40.552495,14.0474953 41.5575,14.9925 C42.562505,15.9375047 43.065,17.212492 43.065,18.8175 C43.065,20.422508 42.562505,21.6874954 41.5575,22.6125 C40.552495,23.5375046 39.2100084,24 37.53,24 L34.125,24 L34.125,13.575 L37.53,13.575 Z M46.395,14.325 C46.184999,14.5350011 45.9275015,14.64 45.6225,14.64 C45.3174985,14.64 45.060001,14.5350011 44.85,14.325 C44.6399989,14.114999 44.535,13.8550016 44.535,13.545 C44.535,13.2349985 44.6399989,12.9750011 44.85,12.765 C45.060001,12.554999 45.3174985,12.45 45.6225,12.45 C45.9275015,12.45 46.184999,12.554999 46.395,12.765 C46.605001,12.9750011 46.71,13.2349985 46.71,13.545 C46.71,13.8550016 46.605001,14.114999 46.395,14.325 Z M44.76,24 L44.76,15.735 L46.47,15.735 L46.47,24 L44.76,24 Z M50.43,15.735 L50.43,17.175 C50.9600026,16.1249948 51.7849944,15.6 52.905,15.6 L52.905,17.37 L52.47,17.37 C51.7999966,17.37 51.2925017,17.5399983 50.9475,17.88 C50.6024983,18.2200017 50.43,18.8099958 50.43,19.65 L50.43,24 L48.72,24 L48.72,15.735 L50.43,15.735 Z M57.96,24.135 C56.759994,24.135 55.7850038,23.7450039 55.035,22.965 C54.2849962,22.1849961 53.91,21.1500065 53.91,19.86 C53.91,18.5699936 54.2899962,17.5375039 55.05,16.7625 C55.8100038,15.9874961 56.792494,15.6 57.9975,15.6 C59.202506,15.6 60.1799962,15.9724963 60.93,16.7175 C61.6800037,17.4625037 62.055,18.434994 62.055,19.635 C62.055,19.9250015 62.0350002,20.1949988 61.995,20.445 L55.665,20.445 C55.7050002,21.1350035 55.9374979,21.682498 56.3625,22.0875 C56.7875021,22.492502 57.3199968,22.695 57.96,22.695 C58.8900046,22.695 59.5449981,22.3100039 59.925,21.54 L61.77,21.54 C61.5199987,22.3000038 61.0650033,22.9224976 60.405,23.4075 C59.7449967,23.8925024 58.9300048,24.135 57.96,24.135 Z M59.595,17.6475 C59.1549978,17.242498 58.6200031,17.04 57.99,17.04 C57.3599969,17.04 56.8325021,17.242498 56.4075,17.6475 C55.9824979,18.052502 55.7400003,18.5949966 55.68,19.275 L60.27,19.275 C60.2599999,18.5949966 60.0350022,18.052502 59.595,17.6475 Z M64.29,22.965 C63.5399962,22.1849961 63.165,21.1525064 63.165,19.8675 C63.165,18.5824936 63.5424962,17.5500039 64.2975,16.77 C65.0525038,15.9899961 66.0249941,15.6 67.215,15.6 C68.215005,15.6 69.0424967,15.8374976 69.6975,16.3125 C70.3525033,16.7875024 70.7949988,17.4649956 71.025,18.345 L69.18,18.345 C68.8699984,17.4749957 68.215005,17.04 67.215,17.04 C66.5149965,17.04 65.9575021,17.2874975 65.5425,17.7825 C65.1274979,18.2775025 64.92,18.9699956 64.92,19.86 C64.92,20.7500045 65.1274979,21.4449975 65.5425,21.945 C65.9575021,22.4450025 66.5149965,22.695 67.215,22.695 C68.2050049,22.695 68.8599984,22.2600044 69.18,21.39 L71.025,21.39 C70.7849988,22.2300042 70.3350033,22.8974975 69.675,23.3925 C69.0149967,23.8875025 68.1950049,24.135 67.215,24.135 C66.014994,24.135 65.0400037,23.7450039 64.29,22.965 Z M76.74,17.13 L74.73,17.13 L74.73,21.705 C74.73,22.0150016 74.8024993,22.2374993 74.9475,22.3725 C75.0925007,22.5075007 75.3399983,22.575 75.69,22.575 L76.74,22.575 L76.74,24 L75.39,24 C73.7999921,24 73.005,23.2350077 73.005,21.705 L73.005,17.13 L72.03,17.13 L72.03,15.735 L73.005,15.735 L73.005,13.68 L74.73,13.68 L74.73,15.735 L76.74,15.735 L76.74,17.13 Z M79.95,14.325 C79.739999,14.5350011 79.4825015,14.64 79.1775,14.64 C78.8724985,14.64 78.615001,14.5350011 78.405,14.325 C78.1949989,14.114999 78.09,13.8550016 78.09,13.545 C78.09,13.2349985 78.1949989,12.9750011 78.405,12.765 C78.615001,12.554999 78.8724985,12.45 79.1775,12.45 C79.4825015,12.45 79.739999,12.554999 79.95,12.765 C80.1600011,12.9750011 80.265,13.2349985 80.265,13.545 C80.265,13.8550016 80.1600011,14.114999 79.95,14.325 Z M78.315,24 L78.315,15.735 L80.025,15.735 L80.025,24 L78.315,24 Z M88.395,19.86 C88.395,18.9699956 88.1525024,18.2775025 87.6675,17.7825 C87.1824976,17.2874975 86.5950035,17.04 85.905,17.04 C85.2149965,17.04 84.6350024,17.2874975 84.165,17.7825 C83.6949977,18.2775025 83.46,18.9724955 83.46,19.8675 C83.46,20.7625045 83.6899977,21.4574975 84.15,21.9525 C84.6100023,22.4475025 85.1824966,22.695 85.8675,22.695 C86.5525034,22.695 87.1449975,22.4450025 87.645,21.945 C88.1450025,21.4449975 88.395,20.7500045 88.395,19.86 Z M82.89,22.9575 C82.1099961,22.1724961 81.72,21.1425064 81.72,19.8675 C81.72,18.5924936 82.122496,17.5625039 82.9275,16.7775 C83.732504,15.9924961 84.734994,15.6 85.935,15.6 C87.135006,15.6 88.137496,15.9924961 88.9425,16.7775 C89.747504,17.5625039 90.15,18.5899937 90.15,19.86 C90.15,21.1300064 89.7375041,22.1599961 88.9125,22.95 C88.0874959,23.740004 87.072506,24.135 85.8675,24.135 C84.662494,24.135 83.6700039,23.7425039 82.89,22.9575 Z M93.555,15.735 L93.555,17.04 C94.1050027,16.0799952 94.984994,15.6 96.195,15.6 C97.1250047,15.6 97.892497,15.9099969 98.4975,16.53 C99.102503,17.1500031 99.405,18.0149945 99.405,19.125 L99.405,24 L97.71,24 L97.71,19.38 C97.71,18.6399963 97.5250018,18.072502 97.155,17.6775 C96.7849982,17.282498 96.2800032,17.085 95.64,17.085 C94.9999968,17.085 94.4925019,17.282498 94.1175,17.6775 C93.7424981,18.072502 93.555,18.6399963 93.555,19.38 L93.555,24 L91.845,24 L91.845,15.735 L93.555,15.735 Z" id="Direction" fill="#FFFFFF"></path>
                        <path d="M19.8639053,12.8 C20.6639053,12.8 21.2639053,12.2 21.2639053,11.4 C21.2639053,10.6 20.6639053,10 19.8639053,10 C19.0639053,10 18.4639053,10.6 18.4639053,11.4 C18.4639053,12.2 19.0639053,12.8 19.8639053,12.8 M23.6639053,17.7 L20.8639053,14 L18.0639053,13.6 L14.4639053,15.6 L14.0639053,16.4 L14.0639053,18 C14.0639053,18.4 14.2639053,18.8 14.8639053,18.8 C15.4639053,18.8 15.6639053,18.3 15.6639053,18 L15.6639053,16.5 L16.8639053,16.1 L17.2639053,16.1 C17.2639053,16.1 17.0639053,18.5 17.2639053,18.9 C17.1639053,20 16.8639053,23 16.8639053,23 C16.8639053,23 14.0639053,25.3 14.0639053,25.4 C14.0639053,25.6 13.7639053,26.4 14.4639053,26.6 C15.0639053,26.8 15.5639053,26.4 15.6639053,26.2 C15.7639053,26 18.4639053,23.8 18.4639053,23.8 C18.4639053,23.8 18.7639053,22 18.8639053,20.8 C19.6639053,21.7 20.4639053,22.6 20.4639053,22.6 C20.4639053,22.6 21.3639053,27 22.0639053,27 C22.7639053,27 22.9639053,26.8 22.8639053,26.2 C22.6639053,24.9 22.0639053,22.2 22.0639053,22.2 L20.4639053,19.8 L20.6639053,16.4 L22.8639053,18.9 C22.8639053,18.9 23.3639053,19 23.6639053,18.5 C23.9639053,18 23.6639053,17.7 23.6639053,17.7" id="Shape" fill="#FFFFFF"></path>
                    </g>
                </g>
            </g>
        </g>
    </g>
</svg>