<?xml version="1.0" encoding="UTF-8"?>
<svg width="18px" height="18px" viewBox="0 0 18 18" version="1.1" xmlns="http://www.w3.org/2000/svg" xmlns:xlink="http://www.w3.org/1999/xlink">
    <!-- Generator: Sketch 41.1 (35376) - http://www.bohemiancoding.com/sketch -->
    <title>Shape</title>
    <desc>Created with Sketch.</desc>
    <defs></defs>
    <g id="Page-1" stroke="none" stroke-width="1" fill="none" fill-rule="evenodd">
        <g id="landing-page" transform="translate(-1139.000000, -2596.000000)">
            <g id="footer" transform="translate(250.000000, 2566.000000)">
                <g id="facebook" transform="translate(888.000000, 29.000000)">
                    <path d="M17.0048205,18.9975285 C18.1067277,18.9988935 18.9992655,18.1089309 18.9983584,17.0083834 L18.9868304,3.02294796 C18.9859238,1.92300849 18.0933005,1.02977765 16.9917412,1.02785866 L2.99344764,1.00347272 C1.89249691,1.00155479 0.999959643,1.89151703 0.9999098,2.9926178 L0.999276398,16.985084 C0.999226582,18.0855764 1.89184935,18.9788076 2.99436569,18.9801733 L17.0048205,18.9975285 Z" id="Shape" fill="#000000"></path>
                    <path d="M13.4196484,18.9300311 L13.4196484,11.9865837 L15.7594375,11.9865837 L16.1097344,9.28063035 L13.4196484,9.28063035 L13.4196484,7.55291051 C13.4196484,6.76945525 13.6381094,6.23554864 14.7659922,6.23554864 L16.2045156,6.23491829 L16.2045156,3.81472374 C15.9556094,3.78173541 15.1017344,3.70805447 14.1083594,3.70805447 C12.0342813,3.70805447 10.6143906,4.96910506 10.6143906,7.28501167 L10.6143906,9.28063035 L8.268625,9.28063035 L8.268625,11.9865837 L10.6143906,11.9865837 L10.6143906,18.9300311 L13.4196484,18.9300311" id="Shape" fill="#FFFFFF"></path>
                </g>
            </g>
        </g>
    </g>
</svg>