<?xml version="1.0" encoding="UTF-8"?>
<svg width="18px" height="18px" viewBox="0 0 18 18" version="1.1" xmlns="http://www.w3.org/2000/svg" xmlns:xlink="http://www.w3.org/1999/xlink">
    <!-- Generator: Sketch 41.1 (35376) - http://www.bohemiancoding.com/sketch -->
    <title>Shape</title>
    <desc>Created with Sketch.</desc>
    <defs></defs>
    <g id="Page-1" stroke="none" stroke-width="1" fill="none" fill-rule="evenodd">
        <g id="landing-page" transform="translate(-1098.000000, -2596.000000)">
            <g id="footer" transform="translate(250.000000, 2566.000000)">
                <g id="facebook" transform="translate(848.000000, 30.000000)">
                    <path d="M13,9 L12,9 L12,10 L13,10 L13,11 L14,11 L14,10 L15,10 L15,9 L14,9 L14,8 L13,8 L13,9 Z M9,18 C13.9705627,18 18,13.9705627 18,9 C18,4.02943725 13.9705627,0 9,0 C4.02943725,0 0,4.02943725 0,9 C0,13.9705627 4.02943725,18 9,18 Z" id="Combined-Shape" fill="#000000"></path>
                    <path d="M2.94374985,9.37496943 C2.94374985,8.18058874 3.3425129,7.19427625 4.14005098,6.41600238 C4.93758906,5.6377285 5.91426959,5.2485974 7.07012188,5.2485974 C7.94856961,5.2485974 8.7287582,5.47205883 9.41071105,5.91898838 C10.0926639,6.36591793 10.580041,6.99392158 10.8728569,7.80301818 L8.91947629,7.80301818 C8.55730924,7.09409545 7.94086393,6.7396394 7.07012188,6.7396394 C6.3380821,6.7396394 5.7428271,6.98043835 5.28433902,7.46204347 C4.82585095,7.94364858 4.59661035,8.58321059 4.59661035,9.38074867 C4.59661035,10.1782867 4.82585095,10.8178487 5.28433902,11.2994539 C5.7428271,11.781059 6.30533344,12.0218579 6.97187492,12.0218579 C7.63841641,12.0218579 8.16239492,11.8581147 8.54382617,11.5306232 C8.92525743,11.2031317 9.16220359,10.761988 9.25467177,10.2071789 L6.57310788,10.2071789 L6.57310788,8.97042316 L11,8.97042316 L11,10.2071789 C10.8612977,11.0856267 10.429786,11.8542569 9.70545191,12.5130927 C8.98111781,13.1719285 8.0699346,13.5013415 6.97187492,13.5013415 C5.87381525,13.5013415 4.92795699,13.1122104 4.13427175,12.3339365 C3.34058651,11.5556626 2.94374985,10.5693501 2.94374985,9.37496943 Z" id="G" fill="#FFFFFF"></path>
                </g>
            </g>
        </g>
    </g>
</svg>