<?xml version="1.0" encoding="UTF-8"?>
<svg width="19px" height="18px" viewBox="0 0 19 18" version="1.1" xmlns="http://www.w3.org/2000/svg" xmlns:xlink="http://www.w3.org/1999/xlink">
    <!-- Generator: Sketch 41.1 (35376) - http://www.bohemiancoding.com/sketch -->
    <title>twitter</title>
    <desc>Created with Sketch.</desc>
    <defs></defs>
    <g id="Page-1" stroke="none" stroke-width="1" fill="none" fill-rule="evenodd">
        <g id="landing-page" transform="translate(-1169.000000, -2596.000000)" fill="#000000">
            <g id="footer" transform="translate(250.000000, 2566.000000)">
                <g id="twitter" transform="translate(919.000000, 30.000000)">
                    <g id="Twitter">
                        <path d="M18.1778671,2.7281197 C17.5218308,3.0215733 16.8162886,3.21959157 16.0755452,3.30842629 C16.8314989,2.85258312 17.4116646,2.1303452 17.6850522,1.26923921 C16.9777354,1.6917876 16.1947291,1.99858829 15.3607681,2.16400466 C14.6932517,1.44767446 13.7418815,1 12.6892176,1 C10.6678365,1 9.02899531,2.65029815 9.02899531,4.68576555 C9.02899531,4.97458778 9.06133538,5.25575185 9.12377019,5.52550161 C6.08173936,5.3720101 3.38451235,3.90477856 1.57926285,1.67468436 C1.26430026,2.21885171 1.08376807,2.85189024 1.08376807,3.52763215 C1.08376807,4.80629049 1.7299176,5.93433823 2.71203445,6.59549317 C2.11220402,6.57609248 1.54757465,6.41049378 1.05421656,6.13428928 C1.05389063,6.14960561 1.05389063,6.16510428 1.05389063,6.18096762 C1.05389063,7.96641416 2.31558793,9.45607318 3.99017341,9.79492876 C3.68299707,9.87898624 3.35959637,9.92420588 3.02572951,9.92420588 C2.78964338,9.92420588 2.56047433,9.90123138 2.33695483,9.85798098 C2.80293432,11.3221857 4.1546261,12.3879106 5.7560209,12.4176316 C4.50334115,13.4062642 2.92526887,13.9954689 1.21019493,13.9954689 C0.914897135,13.9954689 0.623655431,13.9778186 0.337194118,13.9440133 C1.95731211,14.9899363 3.88105736,15.6000004 5.94803327,15.6000004 C12.6807071,15.6000004 16.3620066,9.9836843 16.3620066,5.11309117 C16.3620066,4.95354606 16.3588196,4.79418329 16.3517577,4.63624275 C17.0666797,4.11665447 17.6875148,3.46746086 18.1778671,2.7281197 L18.1778671,2.7281197 Z" id="Shape"></path>
                    </g>
                </g>
            </g>
        </g>
    </g>
</svg>