<?xml version="1.0" encoding="UTF-8"?>
<svg width="451px" height="43px" viewBox="0 0 451 43" version="1.1" xmlns="http://www.w3.org/2000/svg" xmlns:xlink="http://www.w3.org/1999/xlink">
    <!-- Generator: Sketch 41.1 (35376) - http://www.bohemiancoding.com/sketch -->
    <title>logo</title>
    <desc>Created with Sketch.</desc>
    <defs>
        <polygon id="path-1" points="16.0800821 11.4134387 1.30966349 11.4850429 0.311857387 11.418505 8.69934261 3.17963163 10.421263 4.86097922 12.1447913 3.06607818 16.0416168 0.0262773891"></polygon>
    </defs>
    <g id="Page-1" stroke="none" stroke-width="1" fill="none" fill-rule="evenodd">
        <g id="landing-page" transform="translate(-250.000000, -34.000000)">
            <g id="hero" transform="translate(250.000000, 34.000000)">
                <g id="header" transform="translate(0.045696, 0.000000)">
                    <g id="logo">
                        <path d="M54.0335,14.88 C53.6644982,15.1860015 53.48,15.6269971 53.48,16.203 C53.48,16.7790029 53.6509983,17.2424982 53.993,17.5935 C54.3350017,17.9445018 54.7804973,18.2144991 55.3295,18.4035 C55.8785027,18.5925009 56.4904966,18.7724991 57.1655,18.9435 C57.8405034,19.1145009 58.5109967,19.3214988 59.177,19.5645 C59.8430033,19.8075012 60.4504973,20.1089982 60.9995,20.469 C61.5485027,20.8290018 61.9939983,21.3374967 62.336,21.9945 C62.6780017,22.6515033 62.849,23.4389954 62.849,24.357 C62.849,25.959008 62.1965065,27.3314943 60.8915,28.4745 C59.5864935,29.6175057 57.8675107,30.189 55.7345,30.189 C53.6014893,30.189 51.8825065,29.6760051 50.5775,28.65 C49.2724935,27.6239949 48.62,26.1660095 48.62,24.276 L53.534,24.276 C53.6600006,25.7880076 54.4339929,26.544 55.856,26.544 C56.5220033,26.544 57.0439981,26.3685018 57.422,26.0175 C57.8000019,25.6664982 57.989,25.2210027 57.989,24.681 C57.989,24.1409973 57.8180017,23.7000017 57.476,23.358 C57.1339983,23.0159983 56.6885027,22.746001 56.1395,22.548 C55.5904973,22.349999 54.9785034,22.1655009 54.3035,21.9945 C53.6284966,21.8234991 52.9580033,21.6120013 52.292,21.36 C51.6259967,21.1079987 51.0185027,20.8065018 50.4695,20.4555 C49.9204973,20.1044982 49.4750017,19.6005033 49.133,18.9435 C48.7909983,18.2864967 48.62,17.5080045 48.62,16.608 C48.62,14.8439912 49.2769934,13.4310053 50.591,12.369 C51.9050066,11.3069947 53.5834898,10.776 55.6265,10.776 C57.6695102,10.776 59.3209937,11.2394954 60.581,12.1665 C61.8410063,13.0935046 62.4979997,14.55599 62.552,16.554 L57.53,16.554 C57.4579996,15.8699966 57.2375018,15.3435018 56.8685,14.9745 C56.4994982,14.6054982 56.0270029,14.421 55.451,14.421 C54.8749971,14.421 54.4025018,14.5739985 54.0335,14.88 Z M72.893,26.085 L74.54,26.085 L74.54,30 L72.191,30 C70.4989915,30 69.1895046,29.6265037 68.2625,28.8795 C67.3354954,28.1324963 66.872,26.8500091 66.872,25.032 L66.872,18.768 L65.468,18.768 L65.468,14.934 L66.872,14.934 L66.872,11.262 L71.489,11.262 L71.489,14.934 L74.513,14.934 L74.513,18.768 L71.489,18.768 L71.489,25.032 C71.489,25.7340035 71.9569953,26.085 72.893,26.085 Z M87.932,14.934 L92.549,14.934 L92.549,30 L87.932,30 L87.932,27.786 C86.9779952,29.3700079 85.4570104,30.162 83.369,30.162 C81.6409914,30.162 80.2415054,29.5860058 79.1705,28.434 C78.0994946,27.2819942 77.564,25.7160099 77.564,23.736 L77.564,14.934 L82.154,14.934 L82.154,23.115 C82.154,24.0870049 82.4104974,24.8384973 82.9235,25.3695 C83.4365026,25.9005027 84.1429955,26.166 85.043,26.166 C85.9430045,26.166 86.6494974,25.9005027 87.1625,25.3695 C87.6755026,24.8384973 87.932,24.0870049 87.932,23.115 L87.932,14.934 Z M106.778,22.467 C106.778,21.2789941 106.445003,20.3655032 105.779,19.7265 C105.112997,19.0874968 104.348004,18.768 103.484,18.768 C102.619996,18.768 101.855003,19.0919968 101.189,19.74 C100.522997,20.3880032 100.19,21.3059941 100.19,22.494 C100.19,23.6820059 100.522997,24.5954968 101.189,25.2345 C101.855003,25.8735032 102.619996,26.193 103.484,26.193 C104.348004,26.193 105.112997,25.8690032 105.779,25.221 C106.445003,24.5729968 106.778,23.6550059 106.778,22.467 Z M95.492,22.494 C95.492,20.2439887 96.1579933,18.3945072 97.49,16.9455 C98.8220067,15.4964928 100.44649,14.772 102.3635,14.772 C104.28051,14.772 105.751995,15.4829929 106.778,16.905 L106.778,10.02 L111.395,10.02 L111.395,30 L106.778,30 L106.778,27.813 C105.661994,29.3970079 104.168009,30.189 102.296,30.189 C100.423991,30.189 98.8220067,29.4690072 97.49,28.029 C96.1579933,26.5889928 95.492,24.7440112 95.492,22.494 Z M120.062,14.934 L120.062,17.742 C121.142005,15.7619901 122.581991,14.772 124.382,14.772 L124.382,19.47 L123.248,19.47 C122.185995,19.47 121.389503,19.7219975 120.8585,20.226 C120.327497,20.7300025 120.062,21.6119937 120.062,22.872 L120.062,30 L115.445,30 L115.445,14.934 L120.062,14.934 Z M133.292,30.189 C131.095989,30.189 129.296007,29.4825071 127.892,28.0695 C126.487993,26.6564929 125.786,24.7800117 125.786,22.44 C125.786,20.0999883 126.483493,18.2370069 127.8785,16.851 C129.273507,15.4649931 131.077989,14.772 133.292,14.772 C135.506011,14.772 137.341993,15.4559932 138.8,16.824 C140.258007,18.1920068 140.987,20.0909878 140.987,22.521 C140.987,23.0430026 140.951,23.5289978 140.879,23.979 L130.511,23.979 C130.601,24.6450033 130.897997,25.1894979 131.402,25.6125 C131.906003,26.0355021 132.450497,26.247 133.0355,26.247 C133.620503,26.247 134.056999,26.1885006 134.345,26.0715 C134.633001,25.9544994 134.844499,25.8375006 134.9795,25.7205 C135.114501,25.6034994 135.289999,25.4100014 135.506,25.14 L140.501,25.14 C140.068998,26.6520076 139.205006,27.8714954 137.909,28.7985 C136.612994,29.7255046 135.074009,30.189 133.292,30.189 Z M135.263,19.3755 C134.722997,18.9344978 134.084004,18.714 133.346,18.714 C132.607996,18.714 131.987003,18.9344978 131.483,19.3755 C130.978997,19.8165022 130.664001,20.3879965 130.538,21.09 L136.181,21.09 C136.109,20.3879965 135.803003,19.8165022 135.263,19.3755 Z M142.931,19.47 C142.931,18.1379933 143.497994,17.0220045 144.632,16.122 C145.766006,15.2219955 147.30049,14.772 149.2355,14.772 C151.17051,14.772 152.731994,15.2129956 153.92,16.095 C155.108006,16.9770044 155.738,18.1829923 155.81,19.713 L151.085,19.713 C151.031,19.1909974 150.851002,18.8355009 150.545,18.6465 C150.238998,18.4574991 149.780003,18.363 149.168,18.363 C147.961994,18.363 147.359,18.7319963 147.359,19.47 C147.359,20.1360033 148.096993,20.5949987 149.573,20.847 C151.067007,21.0990013 152.425994,21.4859974 153.65,22.008 C154.280003,22.2600013 154.806498,22.6784971 155.2295,23.2635 C155.652502,23.8485029 155.864,24.5639958 155.864,25.41 C155.864,26.814007 155.261006,27.9614955 154.055,28.8525 C152.848994,29.7435045 151.328009,30.189 149.492,30.189 C147.655991,30.189 146.126006,29.7705042 144.902,28.9335 C143.677994,28.0964958 143.012001,26.8590082 142.904,25.221 L147.629,25.221 C147.755001,26.1390046 148.402994,26.598 149.573,26.598 C150.113003,26.598 150.558498,26.4720013 150.9095,26.22 C151.260502,25.9679987 151.436,25.644002 151.436,25.248 C151.436,24.851998 151.143503,24.5370012 150.5585,24.303 C149.973497,24.0689988 149.267004,23.8710008 148.439,23.709 C147.610996,23.5469992 146.778504,23.3445012 145.9415,23.1015 C145.104496,22.8584988 144.393503,22.435503 143.8085,21.8325 C143.223497,21.229497 142.931,20.4420049 142.931,19.47 Z M161.237,14.016 C160.480996,14.016 159.842003,13.7550026 159.32,13.233 C158.797997,12.7109974 158.537,12.0675038 158.537,11.3025 C158.537,10.5374962 158.797997,9.89400261 159.32,9.372 C159.842003,8.84999739 160.480996,8.589 161.237,8.589 C161.993004,8.589 162.631997,8.84999739 163.154,9.372 C163.676003,9.89400261 163.937,10.5374962 163.937,11.3025 C163.937,12.0675038 163.676003,12.7109974 163.154,13.233 C162.631997,13.7550026 161.993004,14.016 161.237,14.016 Z M158.942,30 L158.942,14.934 L163.559,14.934 L163.559,30 L158.942,30 Z" id="Studresi" fill="#000000"></path>
                        <path d="M198.610304,14.424 L198.610304,19 L197.154304,19 L197.154304,7.912 L200.754304,7.912 C202.00231,7.912 202.954301,8.21599696 203.610304,8.824 C204.266307,9.43200304 204.594304,10.1759956 204.594304,11.056 C204.594304,11.9360044 204.354306,12.6693304 203.874304,13.256 C203.394302,13.8426696 202.674309,14.2106659 201.714304,14.36 L204.770304,19 L202.946304,19 L200.034304,14.424 L198.610304,14.424 Z M198.610304,9.08 L198.610304,13.272 L200.754304,13.272 C201.554308,13.272 202.148969,13.0880018 202.538304,12.72 C202.927639,12.3519982 203.122304,11.8373366 203.122304,11.176 C203.122304,9.77865968 202.332978,9.08 200.754304,9.08 L198.610304,9.08 Z M210.706304,19.144 C209.447631,19.144 208.423641,18.7280042 207.634304,17.896 C206.844967,17.0639958 206.450304,15.9653402 206.450304,14.6 C206.450304,13.2346598 206.8503,12.1386708 207.650304,11.312 C208.450308,10.4853292 209.487631,10.072 210.762304,10.072 C212.036977,10.072 213.060967,10.4639961 213.834304,11.248 C214.607641,12.0320039 214.994304,13.0319939 214.994304,14.248 C214.994304,14.5573349 214.972971,14.845332 214.930304,15.112 L207.938304,15.112 C207.980971,15.986671 208.255635,16.6773308 208.762304,17.184 C209.268973,17.6906692 209.916967,17.944 210.706304,17.944 C211.30364,17.944 211.807635,17.810668 212.218304,17.544 C212.628973,17.277332 212.930303,16.9253355 213.122304,16.488 L214.690304,16.488 C214.412969,17.2560038 213.935641,17.8906642 213.258304,18.392 C212.580967,18.8933358 211.730309,19.144 210.706304,19.144 Z M212.674304,12.032 C212.151635,11.5253308 211.503641,11.272 210.730304,11.272 C209.956967,11.272 209.314306,11.5199975 208.802304,12.016 C208.290301,12.5120025 208.007638,13.1919957 207.954304,14.056 L213.474304,14.056 C213.463637,13.2133291 213.196973,12.5386692 212.674304,12.032 Z M212.274304,6.472 L212.274304,7.816 L208.866304,9.608 L208.866304,8.488 L212.274304,6.472 Z M216.482304,12.696 C216.482304,11.9599963 216.788968,11.3386692 217.402304,10.832 C218.01564,10.3253308 218.810299,10.072 219.786304,10.072 C220.762309,10.072 221.527634,10.3199975 222.082304,10.816 C222.636973,11.3120025 222.94097,11.9919957 222.994304,12.856 L221.490304,12.856 C221.46897,12.3653309 221.303639,11.9706682 220.994304,11.672 C220.684969,11.3733318 220.25564,11.224 219.706304,11.224 C219.156968,11.224 218.724972,11.3546654 218.410304,11.616 C218.095636,11.8773346 217.938304,12.2133313 217.938304,12.624 C217.938304,13.0346687 218.116969,13.3519989 218.474304,13.576 C218.831639,13.8000011 219.263635,13.9626662 219.770304,14.064 C220.276973,14.1653338 220.783635,14.282666 221.290304,14.416 C221.796973,14.549334 222.228969,14.7999982 222.586304,15.168 C222.943639,15.5360018 223.122304,16.0586633 223.122304,16.736 C223.122304,17.4133367 222.81564,17.9839977 222.202304,18.448 C221.588968,18.9120023 220.791642,19.144 219.810304,19.144 C218.828966,19.144 218.042307,18.8986691 217.450304,18.408 C216.858301,17.9173309 216.535638,17.2400043 216.482304,16.376 L217.986304,16.376 C218.007637,16.8666691 218.180969,17.2586652 218.506304,17.552 C218.831639,17.8453348 219.279634,17.992 219.850304,17.992 C220.420973,17.992 220.868969,17.8693346 221.194304,17.624 C221.519639,17.3786654 221.682304,17.0666686 221.682304,16.688 C221.682304,16.3093314 221.554305,16.0080011 221.298304,15.784 C221.042303,15.5599989 220.722306,15.4053338 220.338304,15.32 C219.954302,15.2346662 219.53564,15.1333339 219.082304,15.016 C218.628968,14.8986661 218.210306,14.773334 217.826304,14.64 C217.442302,14.506666 217.122305,14.2746683 216.866304,13.944 C216.610303,13.6133317 216.482304,13.1973358 216.482304,12.696 Z M225.954304,8.808 C225.676969,8.808 225.444972,8.71200096 225.258304,8.52 C225.071636,8.32799904 224.978304,8.09333472 224.978304,7.816 C224.978304,7.53866528 225.074303,7.30400096 225.266304,7.112 C225.458305,6.91999904 225.690303,6.824 225.962304,6.824 C226.234305,6.824 226.466303,6.91999904 226.658304,7.112 C226.850305,7.30400096 226.946304,7.53866528 226.946304,7.816 C226.946304,8.09333472 226.850305,8.32799904 226.658304,8.52 C226.466303,8.71200096 226.231639,8.808 225.954304,8.808 Z M225.218304,19 L225.218304,10.216 L226.674304,10.216 L226.674304,19 L225.218304,19 Z M235.922304,14.616 C235.922304,13.623995 235.63164,12.8293363 235.050304,12.232 C234.468968,11.6346637 233.770308,11.336 232.954304,11.336 C232.1383,11.336 231.43964,11.6239971 230.858304,12.2 C230.276968,12.7760029 229.986304,13.559995 229.986304,14.552 C229.986304,15.544005 230.279634,16.3493302 230.866304,16.968 C231.452974,17.5866698 232.151633,17.896 232.962304,17.896 C233.772975,17.896 234.468968,17.5973363 235.050304,17 C235.63164,16.4026637 235.922304,15.608005 235.922304,14.616 Z M229.698304,17.856 C228.8983,16.997329 228.498304,15.8986734 228.498304,14.56 C228.498304,13.2213266 228.895633,12.1386708 229.690304,11.312 C230.484975,10.4853292 231.484965,10.072 232.690304,10.072 C233.436974,10.072 234.090301,10.2479982 234.650304,10.6 C235.210307,10.9520018 235.634302,11.4106638 235.922304,11.976 L235.922304,7.16 L237.394304,7.16 L237.394304,19 L235.922304,19 L235.922304,17.208 C235.634302,17.7840029 235.210307,18.2506649 234.650304,18.608 C234.090301,18.9653351 233.436974,19.144 232.690304,19.144 C231.495631,19.144 230.498308,18.714671 229.698304,17.856 Z M243.474304,19.144 C242.215631,19.144 241.191641,18.7280042 240.402304,17.896 C239.612967,17.0639958 239.218304,15.9653402 239.218304,14.6 C239.218304,13.2346598 239.6183,12.1386708 240.418304,11.312 C241.218308,10.4853292 242.255631,10.072 243.530304,10.072 C244.804977,10.072 245.828967,10.4639961 246.602304,11.248 C247.375641,12.0320039 247.762304,13.0319939 247.762304,14.248 C247.762304,14.5573349 247.740971,14.845332 247.698304,15.112 L240.706304,15.112 C240.748971,15.986671 241.023635,16.6773308 241.530304,17.184 C242.036973,17.6906692 242.684967,17.944 243.474304,17.944 C244.07164,17.944 244.575635,17.810668 244.986304,17.544 C245.396973,17.277332 245.698303,16.9253355 245.890304,16.488 L247.458304,16.488 C247.180969,17.2560038 246.703641,17.8906642 246.026304,18.392 C245.348967,18.8933358 244.498309,19.144 243.474304,19.144 Z M245.442304,12.032 C244.919635,11.5253308 244.271641,11.272 243.498304,11.272 C242.724967,11.272 242.082306,11.5199975 241.570304,12.016 C241.058301,12.5120025 240.775638,13.1919957 240.722304,14.056 L246.242304,14.056 C246.231637,13.2133291 245.964973,12.5386692 245.442304,12.032 Z M251.026304,10.216 L251.026304,11.64 C251.62364,10.5946614 252.578297,10.072 253.890304,10.072 C254.860975,10.072 255.671634,10.3946634 256.322304,11.04 C256.972974,11.6853366 257.298304,12.6053274 257.298304,13.8 L257.298304,19 L255.858304,19 L255.858304,14.04 C255.858304,13.1546622 255.644973,12.482669 255.218304,12.024 C254.791635,11.565331 254.202308,11.336 253.450304,11.336 C252.6983,11.336 252.106306,11.565331 251.674304,12.024 C251.242302,12.482669 251.026304,13.1546622 251.026304,14.04 L251.026304,19 L249.570304,19 L249.570304,10.216 L251.026304,10.216 Z M260.226304,17.896 C259.436967,17.0639958 259.042304,15.9680068 259.042304,14.608 C259.042304,13.2479932 259.436967,12.1520042 260.226304,11.32 C261.015641,10.4879958 262.039631,10.072 263.298304,10.072 C264.354309,10.072 265.215634,10.3173309 265.882304,10.808 C266.548974,11.2986691 267.015636,11.9973288 267.282304,12.904 L265.714304,12.904 C265.543636,12.3919974 265.250306,11.9920014 264.834304,11.704 C264.418302,11.4159986 263.906307,11.272 263.298304,11.272 C262.4663,11.272 261.796973,11.5626638 261.290304,12.144 C260.783635,12.7253362 260.530304,13.5466614 260.530304,14.608 C260.530304,15.6693386 260.783635,16.4906638 261.290304,17.072 C261.796973,17.6533362 262.4663,17.944 263.298304,17.944 C264.54631,17.944 265.351635,17.4000054 265.714304,16.312 L267.282304,16.312 C267.015636,17.1760043 266.543641,17.8639974 265.866304,18.376 C265.188967,18.8880026 264.332976,19.144 263.298304,19.144 C262.039631,19.144 261.015641,18.7280042 260.226304,17.896 Z M272.898304,19.144 C271.639631,19.144 270.615641,18.7280042 269.826304,17.896 C269.036967,17.0639958 268.642304,15.9653402 268.642304,14.6 C268.642304,13.2346598 269.0423,12.1386708 269.842304,11.312 C270.642308,10.4853292 271.679631,10.072 272.954304,10.072 C274.228977,10.072 275.252967,10.4639961 276.026304,11.248 C276.799641,12.0320039 277.186304,13.0319939 277.186304,14.248 C277.186304,14.5573349 277.164971,14.845332 277.122304,15.112 L270.130304,15.112 C270.172971,15.986671 270.447635,16.6773308 270.954304,17.184 C271.460973,17.6906692 272.108967,17.944 272.898304,17.944 C273.49564,17.944 273.999635,17.810668 274.410304,17.544 C274.820973,17.277332 275.122303,16.9253355 275.314304,16.488 L276.882304,16.488 C276.604969,17.2560038 276.127641,17.8906642 275.450304,18.392 C274.772967,18.8933358 273.922309,19.144 272.898304,19.144 Z M274.866304,12.032 C274.343635,11.5253308 273.695641,11.272 272.922304,11.272 C272.148967,11.272 271.506306,11.5199975 270.994304,12.016 C270.482301,12.5120025 270.199638,13.1919957 270.146304,14.056 L275.666304,14.056 C275.655637,13.2133291 275.388973,12.5386692 274.866304,12.032 Z M278.674304,12.696 C278.674304,11.9599963 278.980968,11.3386692 279.594304,10.832 C280.20764,10.3253308 281.002299,10.072 281.978304,10.072 C282.954309,10.072 283.719634,10.3199975 284.274304,10.816 C284.828973,11.3120025 285.13297,11.9919957 285.186304,12.856 L283.682304,12.856 C283.66097,12.3653309 283.495639,11.9706682 283.186304,11.672 C282.876969,11.3733318 282.44764,11.224 281.898304,11.224 C281.348968,11.224 280.916972,11.3546654 280.602304,11.616 C280.287636,11.8773346 280.130304,12.2133313 280.130304,12.624 C280.130304,13.0346687 280.308969,13.3519989 280.666304,13.576 C281.023639,13.8000011 281.455635,13.9626662 281.962304,14.064 C282.468973,14.1653338 282.975635,14.282666 283.482304,14.416 C283.988973,14.549334 284.420969,14.7999982 284.778304,15.168 C285.135639,15.5360018 285.314304,16.0586633 285.314304,16.736 C285.314304,17.4133367 285.00764,17.9839977 284.394304,18.448 C283.780968,18.9120023 282.983642,19.144 282.002304,19.144 C281.020966,19.144 280.234307,18.8986691 279.642304,18.408 C279.050301,17.9173309 278.727638,17.2400043 278.674304,16.376 L280.178304,16.376 C280.199637,16.8666691 280.372969,17.2586652 280.698304,17.552 C281.023639,17.8453348 281.471634,17.992 282.042304,17.992 C282.612973,17.992 283.060969,17.8693346 283.386304,17.624 C283.711639,17.3786654 283.874304,17.0666686 283.874304,16.688 C283.874304,16.3093314 283.746305,16.0080011 283.490304,15.784 C283.234303,15.5599989 282.914306,15.4053338 282.530304,15.32 C282.146302,15.2346662 281.72764,15.1333339 281.274304,15.016 C280.820968,14.8986661 280.402306,14.773334 280.018304,14.64 C279.634302,14.506666 279.314305,14.2746683 279.058304,13.944 C278.802303,13.6133317 278.674304,13.1973358 278.674304,12.696 Z M295.890304,19.144 C294.631631,19.144 293.607641,18.7280042 292.818304,17.896 C292.028967,17.0639958 291.634304,15.9653402 291.634304,14.6 C291.634304,13.2346598 292.0343,12.1386708 292.834304,11.312 C293.634308,10.4853292 294.671631,10.072 295.946304,10.072 C297.220977,10.072 298.244967,10.4639961 299.018304,11.248 C299.791641,12.0320039 300.178304,13.0319939 300.178304,14.248 C300.178304,14.5573349 300.156971,14.845332 300.114304,15.112 L293.122304,15.112 C293.164971,15.986671 293.439635,16.6773308 293.946304,17.184 C294.452973,17.6906692 295.100967,17.944 295.890304,17.944 C296.48764,17.944 296.991635,17.810668 297.402304,17.544 C297.812973,17.277332 298.114303,16.9253355 298.306304,16.488 L299.874304,16.488 C299.596969,17.2560038 299.119641,17.8906642 298.442304,18.392 C297.764967,18.8933358 296.914309,19.144 295.890304,19.144 Z M297.858304,12.032 C297.335635,11.5253308 296.687641,11.272 295.914304,11.272 C295.140967,11.272 294.498306,11.5199975 293.986304,12.016 C293.474301,12.5120025 293.191638,13.1919957 293.138304,14.056 L298.658304,14.056 C298.647637,13.2133291 298.380973,12.5386692 297.858304,12.032 Z M297.458304,6.472 L297.458304,7.816 L294.050304,9.608 L294.050304,8.488 L297.458304,6.472 Z M304.866304,17.816 L306.066304,17.816 L306.066304,19 L304.594304,19 C303.068963,19 302.306304,18.2480075 302.306304,16.744 L302.306304,11.4 L301.170304,11.4 L301.170304,10.216 L302.306304,10.216 L302.306304,8.04 L303.778304,8.04 L303.778304,10.216 L306.050304,10.216 L306.050304,11.4 L303.778304,11.4 L303.778304,16.744 C303.778304,17.1386686 303.858303,17.4159992 304.018304,17.576 C304.178305,17.7360008 304.460969,17.816 304.866304,17.816 Z M313.858304,10.216 L315.314304,10.216 L315.314304,19 L313.858304,19 L313.858304,17.592 C313.271634,18.6266718 312.316977,19.144 310.994304,19.144 C310.023632,19.144 309.212974,18.8213366 308.562304,18.176 C307.911634,17.5306634 307.586304,16.6160059 307.586304,15.432 L307.586304,10.216 L309.026304,10.216 L309.026304,15.192 C309.026304,16.066671 309.242302,16.7359977 309.674304,17.2 C310.106306,17.6640023 310.695634,17.896 311.442304,17.896 C312.188974,17.896 312.778302,17.6640023 313.210304,17.2 C313.642306,16.7359977 313.858304,16.066671 313.858304,15.192 L313.858304,10.216 Z M324.562304,14.616 C324.562304,13.623995 324.27164,12.8293363 323.690304,12.232 C323.108968,11.6346637 322.410308,11.336 321.594304,11.336 C320.7783,11.336 320.07964,11.6239971 319.498304,12.2 C318.916968,12.7760029 318.626304,13.559995 318.626304,14.552 C318.626304,15.544005 318.919634,16.3493302 319.506304,16.968 C320.092974,17.5866698 320.791633,17.896 321.602304,17.896 C322.412975,17.896 323.108968,17.5973363 323.690304,17 C324.27164,16.4026637 324.562304,15.608005 324.562304,14.616 Z M318.338304,17.856 C317.5383,16.997329 317.138304,15.8986734 317.138304,14.56 C317.138304,13.2213266 317.535633,12.1386708 318.330304,11.312 C319.124975,10.4853292 320.124965,10.072 321.330304,10.072 C322.076974,10.072 322.730301,10.2479982 323.290304,10.6 C323.850307,10.9520018 324.274302,11.4106638 324.562304,11.976 L324.562304,7.16 L326.034304,7.16 L326.034304,19 L324.562304,19 L324.562304,17.208 C324.274302,17.7840029 323.850307,18.2506649 323.290304,18.608 C322.730301,18.9653351 322.076974,19.144 321.330304,19.144 C320.135631,19.144 319.138308,18.714671 318.338304,17.856 Z M329.170304,8.808 C328.892969,8.808 328.660972,8.71200096 328.474304,8.52 C328.287636,8.32799904 328.194304,8.09333472 328.194304,7.816 C328.194304,7.53866528 328.290303,7.30400096 328.482304,7.112 C328.674305,6.91999904 328.906303,6.824 329.178304,6.824 C329.450305,6.824 329.682303,6.91999904 329.874304,7.112 C330.066305,7.30400096 330.162304,7.53866528 330.162304,7.816 C330.162304,8.09333472 330.066305,8.32799904 329.874304,8.52 C329.682303,8.71200096 329.447639,8.808 329.170304,8.808 Z M328.434304,19 L328.434304,10.216 L329.890304,10.216 L329.890304,19 L328.434304,19 Z M339.138304,14.616 C339.138304,13.623995 338.84764,12.8293363 338.266304,12.232 C337.684968,11.6346637 336.986308,11.336 336.170304,11.336 C335.3543,11.336 334.65564,11.6239971 334.074304,12.2 C333.492968,12.7760029 333.202304,13.559995 333.202304,14.552 C333.202304,15.544005 333.495634,16.3493302 334.082304,16.968 C334.668974,17.5866698 335.367633,17.896 336.178304,17.896 C336.988975,17.896 337.684968,17.5973363 338.266304,17 C338.84764,16.4026637 339.138304,15.608005 339.138304,14.616 Z M332.914304,17.856 C332.1143,16.997329 331.714304,15.8986734 331.714304,14.56 C331.714304,13.2213266 332.111633,12.1386708 332.906304,11.312 C333.700975,10.4853292 334.700965,10.072 335.906304,10.072 C336.652974,10.072 337.306301,10.2479982 337.866304,10.6 C338.426307,10.9520018 338.850302,11.4106638 339.138304,11.976 L339.138304,10.216 L340.610304,10.216 L340.610304,19 L339.138304,19 L339.138304,17.208 C338.850302,17.7840029 338.426307,18.2506649 337.866304,18.608 C337.306301,18.9653351 336.652974,19.144 335.906304,19.144 C334.711631,19.144 333.714308,18.714671 332.914304,17.856 Z M344.466304,10.216 L344.466304,11.64 C345.06364,10.5946614 346.018297,10.072 347.330304,10.072 C348.300975,10.072 349.111634,10.3946634 349.762304,11.04 C350.412974,11.6853366 350.738304,12.6053274 350.738304,13.8 L350.738304,19 L349.298304,19 L349.298304,14.04 C349.298304,13.1546622 349.084973,12.482669 348.658304,12.024 C348.231635,11.565331 347.642308,11.336 346.890304,11.336 C346.1383,11.336 345.546306,11.565331 345.114304,12.024 C344.682302,12.482669 344.466304,13.1546622 344.466304,14.04 L344.466304,19 L343.010304,19 L343.010304,10.216 L344.466304,10.216 Z M355.938304,17.816 L357.138304,17.816 L357.138304,19 L355.666304,19 C354.140963,19 353.378304,18.2480075 353.378304,16.744 L353.378304,11.4 L352.242304,11.4 L352.242304,10.216 L353.378304,10.216 L353.378304,8.04 L354.850304,8.04 L354.850304,10.216 L357.122304,10.216 L357.122304,11.4 L354.850304,11.4 L354.850304,16.744 C354.850304,17.1386686 354.930303,17.4159992 355.090304,17.576 C355.250305,17.7360008 355.532969,17.816 355.938304,17.816 Z M362.418304,19.144 C361.159631,19.144 360.135641,18.7280042 359.346304,17.896 C358.556967,17.0639958 358.162304,15.9653402 358.162304,14.6 C358.162304,13.2346598 358.5623,12.1386708 359.362304,11.312 C360.162308,10.4853292 361.199631,10.072 362.474304,10.072 C363.748977,10.072 364.772967,10.4639961 365.546304,11.248 C366.319641,12.0320039 366.706304,13.0319939 366.706304,14.248 C366.706304,14.5573349 366.684971,14.845332 366.642304,15.112 L359.650304,15.112 C359.692971,15.986671 359.967635,16.6773308 360.474304,17.184 C360.980973,17.6906692 361.628967,17.944 362.418304,17.944 C363.01564,17.944 363.519635,17.810668 363.930304,17.544 C364.340973,17.277332 364.642303,16.9253355 364.834304,16.488 L366.402304,16.488 C366.124969,17.2560038 365.647641,17.8906642 364.970304,18.392 C364.292967,18.8933358 363.442309,19.144 362.418304,19.144 Z M364.386304,12.032 C363.863635,11.5253308 363.215641,11.272 362.442304,11.272 C361.668967,11.272 361.026306,11.5199975 360.514304,12.016 C360.002301,12.5120025 359.719638,13.1919957 359.666304,14.056 L365.186304,14.056 C365.175637,13.2133291 364.908973,12.5386692 364.386304,12.032 Z M368.194304,12.696 C368.194304,11.9599963 368.500968,11.3386692 369.114304,10.832 C369.72764,10.3253308 370.522299,10.072 371.498304,10.072 C372.474309,10.072 373.239634,10.3199975 373.794304,10.816 C374.348973,11.3120025 374.65297,11.9919957 374.706304,12.856 L373.202304,12.856 C373.18097,12.3653309 373.015639,11.9706682 372.706304,11.672 C372.396969,11.3733318 371.96764,11.224 371.418304,11.224 C370.868968,11.224 370.436972,11.3546654 370.122304,11.616 C369.807636,11.8773346 369.650304,12.2133313 369.650304,12.624 C369.650304,13.0346687 369.828969,13.3519989 370.186304,13.576 C370.543639,13.8000011 370.975635,13.9626662 371.482304,14.064 C371.988973,14.1653338 372.495635,14.282666 373.002304,14.416 C373.508973,14.549334 373.940969,14.7999982 374.298304,15.168 C374.655639,15.5360018 374.834304,16.0586633 374.834304,16.736 C374.834304,17.4133367 374.52764,17.9839977 373.914304,18.448 C373.300968,18.9120023 372.503642,19.144 371.522304,19.144 C370.540966,19.144 369.754307,18.8986691 369.162304,18.408 C368.570301,17.9173309 368.247638,17.2400043 368.194304,16.376 L369.698304,16.376 C369.719637,16.8666691 369.892969,17.2586652 370.218304,17.552 C370.543639,17.8453348 370.991634,17.992 371.562304,17.992 C372.132973,17.992 372.580969,17.8693346 372.906304,17.624 C373.231639,17.3786654 373.394304,17.0666686 373.394304,16.688 C373.394304,16.3093314 373.266305,16.0080011 373.010304,15.784 C372.754303,15.5599989 372.434306,15.4053338 372.050304,15.32 C371.666302,15.2346662 371.24764,15.1333339 370.794304,15.016 C370.340968,14.8986661 369.922306,14.773334 369.538304,14.64 C369.154302,14.506666 368.834305,14.2746683 368.578304,13.944 C368.322303,13.6133317 368.194304,13.1973358 368.194304,12.696 Z M381.234304,9.08 L381.234304,7.912 L388.546304,7.912 L388.546304,9.08 L385.618304,9.08 L385.618304,19 L384.162304,19 L384.162304,9.08 L381.234304,9.08 Z M397.314304,14.616 C397.314304,13.623995 397.02364,12.8293363 396.442304,12.232 C395.860968,11.6346637 395.162308,11.336 394.346304,11.336 C393.5303,11.336 392.83164,11.6239971 392.250304,12.2 C391.668968,12.7760029 391.378304,13.559995 391.378304,14.552 C391.378304,15.544005 391.671634,16.3493302 392.258304,16.968 C392.844974,17.5866698 393.543633,17.896 394.354304,17.896 C395.164975,17.896 395.860968,17.5973363 396.442304,17 C397.02364,16.4026637 397.314304,15.608005 397.314304,14.616 Z M391.090304,17.856 C390.2903,16.997329 389.890304,15.8986734 389.890304,14.56 C389.890304,13.2213266 390.287633,12.1386708 391.082304,11.312 C391.876975,10.4853292 392.876965,10.072 394.082304,10.072 C394.828974,10.072 395.482301,10.2479982 396.042304,10.6 C396.602307,10.9520018 397.026302,11.4106638 397.314304,11.976 L397.314304,10.216 L398.786304,10.216 L398.786304,19 L397.314304,19 L397.314304,17.208 C397.026302,17.7840029 396.602307,18.2506649 396.042304,18.608 C395.482301,18.9653351 394.828974,19.144 394.082304,19.144 C392.887631,19.144 391.890308,18.714671 391.090304,17.856 Z M402.642304,10.216 L402.642304,11.704 C403.164973,10.6159946 404.055631,10.072 405.314304,10.072 L405.314304,11.592 L404.930304,11.592 C404.183634,11.592 403.615639,11.7866647 403.226304,12.176 C402.836969,12.5653353 402.642304,13.2399952 402.642304,14.2 L402.642304,19 L401.186304,19 L401.186304,10.216 L402.642304,10.216 Z M413.594304,16.976 C414.17564,16.3626636 414.466304,15.5573383 414.466304,14.56 C414.466304,13.5626617 414.17564,12.7760029 413.594304,12.2 C413.012968,11.6239971 412.314308,11.336 411.498304,11.336 C410.6823,11.336 409.98364,11.6346637 409.402304,12.232 C408.820968,12.8293363 408.530304,13.6213284 408.530304,14.608 C408.530304,15.5946716 408.820968,16.3893303 409.402304,16.992 C409.98364,17.5946697 410.6823,17.896 411.498304,17.896 C412.314308,17.896 413.012968,17.5893364 413.594304,16.976 Z M411.778304,10.072 C412.983643,10.072 413.983633,10.4853292 414.778304,11.312 C415.572975,12.1386708 415.970304,13.2213266 415.970304,14.56 C415.970304,15.8986734 415.570308,16.997329 414.770304,17.856 C413.9703,18.714671 412.972977,19.144 411.778304,19.144 C411.031634,19.144 410.378307,18.9653351 409.818304,18.608 C409.258301,18.2506649 408.828972,17.7840029 408.530304,17.208 L408.530304,19 L407.074304,19 L407.074304,7.16 L408.530304,7.16 L408.530304,11.976 C408.828972,11.4106638 409.258301,10.9520018 409.818304,10.6 C410.378307,10.2479982 411.031634,10.072 411.778304,10.072 Z M421.474304,19.144 C420.215631,19.144 419.191641,18.7280042 418.402304,17.896 C417.612967,17.0639958 417.218304,15.9653402 417.218304,14.6 C417.218304,13.2346598 417.6183,12.1386708 418.418304,11.312 C419.218308,10.4853292 420.255631,10.072 421.530304,10.072 C422.804977,10.072 423.828967,10.4639961 424.602304,11.248 C425.375641,12.0320039 425.762304,13.0319939 425.762304,14.248 C425.762304,14.5573349 425.740971,14.845332 425.698304,15.112 L418.706304,15.112 C418.748971,15.986671 419.023635,16.6773308 419.530304,17.184 C420.036973,17.6906692 420.684967,17.944 421.474304,17.944 C422.07164,17.944 422.575635,17.810668 422.986304,17.544 C423.396973,17.277332 423.698303,16.9253355 423.890304,16.488 L425.458304,16.488 C425.180969,17.2560038 424.703641,17.8906642 424.026304,18.392 C423.348967,18.8933358 422.498309,19.144 421.474304,19.144 Z M423.442304,12.032 C422.919635,11.5253308 422.271641,11.272 421.498304,11.272 C420.724967,11.272 420.082306,11.5199975 419.570304,12.016 C419.058301,12.5120025 418.775638,13.1919957 418.722304,14.056 L424.242304,14.056 C424.231637,13.2133291 423.964973,12.5386692 423.442304,12.032 Z M427.250304,12.696 C427.250304,11.9599963 427.556968,11.3386692 428.170304,10.832 C428.78364,10.3253308 429.578299,10.072 430.554304,10.072 C431.530309,10.072 432.295634,10.3199975 432.850304,10.816 C433.404973,11.3120025 433.70897,11.9919957 433.762304,12.856 L432.258304,12.856 C432.23697,12.3653309 432.071639,11.9706682 431.762304,11.672 C431.452969,11.3733318 431.02364,11.224 430.474304,11.224 C429.924968,11.224 429.492972,11.3546654 429.178304,11.616 C428.863636,11.8773346 428.706304,12.2133313 428.706304,12.624 C428.706304,13.0346687 428.884969,13.3519989 429.242304,13.576 C429.599639,13.8000011 430.031635,13.9626662 430.538304,14.064 C431.044973,14.1653338 431.551635,14.282666 432.058304,14.416 C432.564973,14.549334 432.996969,14.7999982 433.354304,15.168 C433.711639,15.5360018 433.890304,16.0586633 433.890304,16.736 C433.890304,17.4133367 433.58364,17.9839977 432.970304,18.448 C432.356968,18.9120023 431.559642,19.144 430.578304,19.144 C429.596966,19.144 428.810307,18.8986691 428.218304,18.408 C427.626301,17.9173309 427.303638,17.2400043 427.250304,16.376 L428.754304,16.376 C428.775637,16.8666691 428.948969,17.2586652 429.274304,17.552 C429.599639,17.8453348 430.047634,17.992 430.618304,17.992 C431.188973,17.992 431.636969,17.8693346 431.962304,17.624 C432.287639,17.3786654 432.450304,17.0666686 432.450304,16.688 C432.450304,16.3093314 432.322305,16.0080011 432.066304,15.784 C431.810303,15.5599989 431.490306,15.4053338 431.106304,15.32 C430.722302,15.2346662 430.30364,15.1333339 429.850304,15.016 C429.396968,14.8986661 428.978306,14.773334 428.594304,14.64 C428.210302,14.506666 427.890305,14.2746683 427.634304,13.944 C427.378303,13.6133317 427.250304,13.1973358 427.250304,12.696 Z" id="Résidences-étudiante" fill="#000000"></path>
                        <path d="M196.682304,37.87 L196.682304,37.025 C196.890305,36.8429991 197.217468,36.5613352 197.663804,36.18 C198.110139,35.7986648 198.441636,35.510501 198.658304,35.3155 C198.874972,35.120499 199.160969,34.8561683 199.516304,34.5225 C199.871639,34.1888317 200.14247,33.9093345 200.328804,33.684 C200.515138,33.4586655 200.70797,33.1986681 200.907304,32.904 C201.279972,32.3493306 201.466304,31.8011694 201.466304,31.2595 C201.466304,30.7178306 201.325472,30.282335 201.043804,29.953 C200.762136,29.623665 200.32014,29.459 199.717804,29.459 C199.115468,29.459 198.653972,29.6431648 198.333304,30.0115 C198.012636,30.3798352 197.839304,30.8673303 197.813304,31.474 L196.682304,31.474 C196.716971,30.5033285 197.009468,29.755836 197.559804,29.2315 C198.11014,28.707164 198.825133,28.445 199.704804,28.445 C200.584475,28.445 201.290801,28.6941642 201.823804,29.1925 C202.356807,29.6908358 202.623304,30.3689957 202.623304,31.227 C202.623304,32.2583385 202.120642,33.3199945 201.115304,34.412 C200.751302,34.8020019 200.469638,35.0879991 200.270304,35.27 C199.715634,35.807336 199.121974,36.3403307 198.489304,36.869 L202.909304,36.869 L202.909304,37.87 L196.682304,37.87 Z M209.175304,33.9375 C208.776635,33.6211651 208.254474,33.463 207.608804,33.463 C206.963134,33.463 206.436639,33.6211651 206.029304,33.9375 C205.621969,34.2538349 205.418304,34.7131637 205.418304,35.3155 C205.418304,35.9178363 205.615469,36.3923316 206.009804,36.739 C206.404139,37.0856684 206.934967,37.259 207.602304,37.259 C208.269641,37.259 208.798302,37.0835018 209.188304,36.7325 C209.578306,36.3814982 209.773304,35.907003 209.773304,35.309 C209.773304,34.710997 209.573973,34.2538349 209.175304,33.9375 Z M209.025804,29.6605 C208.683469,29.3701652 208.21114,29.225 207.608804,29.225 C207.006468,29.225 206.531972,29.3701652 206.185304,29.6605 C205.838636,29.9508348 205.665304,30.3473308 205.665304,30.85 C205.665304,31.3526692 205.845135,31.7578318 206.204804,32.0655 C206.564472,32.3731682 207.030301,32.527 207.602304,32.527 C208.174307,32.527 208.640135,32.3731682 208.999804,32.0655 C209.359472,31.7578318 209.539304,31.3526692 209.539304,30.85 C209.539304,30.3473308 209.368139,29.9508348 209.025804,29.6605 Z M204.547304,30.772 C204.547304,30.0353296 204.813801,29.4265024 205.346804,28.9455 C205.879807,28.4644976 206.633799,28.224 207.608804,28.224 C208.583809,28.224 209.335635,28.4666642 209.864304,28.952 C210.392973,29.4373358 210.657304,30.0483296 210.657304,30.785 C210.657304,31.2876692 210.527305,31.7274981 210.267304,32.1045 C210.007303,32.4815019 209.669306,32.7609991 209.253304,32.943 C209.747306,33.1076675 210.145969,33.4044979 210.449304,33.8335 C210.752639,34.2625021 210.904304,34.775997 210.904304,35.374 C210.904304,36.2493377 210.600974,36.949164 209.994304,37.4735 C209.387634,37.997836 208.590309,38.26 207.602304,38.26 C206.614299,38.26 205.816974,37.997836 205.210304,37.4735 C204.603634,36.949164 204.300304,36.2493377 204.300304,35.374 C204.300304,34.775997 204.451969,34.2625021 204.755304,33.8335 C205.058639,33.4044979 205.461635,33.1076675 205.964304,32.943 C205.019633,32.4923311 204.547304,31.7686716 204.547304,30.772 Z M217.794304,34.282 L217.794304,38 L216.611304,38 L216.611304,28.991 L219.536304,28.991 C220.550309,28.991 221.323801,29.2379975 221.856804,29.732 C222.389807,30.2260025 222.656304,30.8304964 222.656304,31.5455 C222.656304,32.2605036 222.461306,32.8563309 222.071304,33.333 C221.681302,33.809669 221.096308,34.1086661 220.316304,34.23 L222.799304,38 L221.317304,38 L218.951304,34.282 L217.794304,34.282 Z M217.794304,29.94 L217.794304,33.346 L219.536304,33.346 C220.186307,33.346 220.669469,33.1965015 220.985804,32.8975 C221.302139,32.5984985 221.460304,32.180336 221.460304,31.643 C221.460304,30.507661 220.818977,29.94 219.536304,29.94 L217.794304,29.94 Z M229.663304,30.863 L230.846304,30.863 L230.846304,38 L229.663304,38 L229.663304,36.856 C229.186635,37.6966709 228.410976,38.117 227.336304,38.117 C226.547633,38.117 225.888973,37.854836 225.360304,37.3305 C224.831635,36.806164 224.567304,36.0630048 224.567304,35.101 L224.567304,30.863 L225.737304,30.863 L225.737304,34.906 C225.737304,35.6166702 225.912802,36.1604981 226.263804,36.5375 C226.614806,36.9145019 227.093634,37.103 227.700304,37.103 C228.306974,37.103 228.785802,36.9145019 229.136804,36.5375 C229.487806,36.1604981 229.663304,35.6166702 229.663304,34.906 L229.663304,30.863 Z M235.786304,38.117 C234.763632,38.117 233.93164,37.7790034 233.290304,37.103 C232.648967,36.4269966 232.328304,35.5343389 232.328304,34.425 C232.328304,33.3156611 232.653301,32.42517 233.303304,31.7535 C233.953307,31.08183 234.796132,30.746 235.831804,30.746 C236.867476,30.746 237.699467,31.0644968 238.327804,31.7015 C238.95614,32.3385032 239.270304,33.1509951 239.270304,34.139 C239.270304,34.3903346 239.252971,34.6243322 239.218304,34.841 L233.537304,34.841 C233.571971,35.5516702 233.795135,36.1128313 234.206804,36.5245 C234.618473,36.9361687 235.144967,37.142 235.786304,37.142 C236.27164,37.142 236.681136,37.0336677 237.014804,36.817 C237.348472,36.6003322 237.593303,36.3143351 237.749304,35.959 L239.023304,35.959 C238.797969,36.5830031 238.41014,37.0986646 237.859804,37.506 C237.309468,37.9133354 236.618308,38.117 235.786304,38.117 Z M237.385304,32.3385 C236.960635,31.9268313 236.43414,31.721 235.805804,31.721 C235.177467,31.721 234.655306,31.922498 234.239304,32.3255 C233.823302,32.728502 233.593637,33.2809965 233.550304,33.983 L238.035304,33.983 C238.026637,33.2983299 237.809973,32.7501687 237.385304,32.3385 Z M245.601304,31.396 C245.601304,31.725335 245.692303,31.9983322 245.874304,32.215 C246.056305,32.4316677 246.290303,32.5919995 246.576304,32.696 C246.862305,32.8000005 247.180802,32.8909996 247.531804,32.969 C247.882806,33.0470004 248.233802,33.1358328 248.584804,33.2355 C248.935806,33.3351672 249.254303,33.4629992 249.540304,33.619 C249.826305,33.7750008 250.060303,34.0089984 250.242304,34.321 C250.424305,34.6330016 250.515304,35.0186644 250.515304,35.478 C250.515304,36.1800035 250.24664,36.7909974 249.709304,37.311 C249.171968,37.8310026 248.446142,38.091 247.531804,38.091 C246.617466,38.091 245.874307,37.8808354 245.302304,37.4605 C244.730301,37.0401646 244.444304,36.4703369 244.444304,35.751 L245.705304,35.751 C245.739971,36.1583354 245.902469,36.4876654 246.192804,36.739 C246.483139,36.9903346 246.914301,37.116 247.486304,37.116 C248.058307,37.116 248.513302,36.9686681 248.851304,36.674 C249.189306,36.3793319 249.358304,36.0348353 249.358304,35.6405 C249.358304,35.2461647 249.267305,34.9428344 249.085304,34.7305 C248.903303,34.5181656 248.669305,34.3600005 248.383304,34.256 C248.097303,34.1519995 247.778806,34.063167 247.427804,33.9895 C247.076802,33.915833 246.725806,33.8270005 246.374804,33.723 C246.023802,33.6189995 245.705305,33.4868341 245.419304,33.3265 C245.133303,33.1661659 244.899305,32.9278349 244.717304,32.6115 C244.535303,32.2951651 244.444304,31.9030023 244.444304,31.435 C244.444304,30.6723295 244.715135,30.059169 245.256804,29.5955 C245.798473,29.131831 246.5048,28.9 247.375804,28.9 C248.246808,28.9 248.940135,29.101498 249.455804,29.5045 C249.971473,29.907502 250.268304,30.4643298 250.346304,31.175 L249.033304,31.175 C248.998637,30.8196649 248.831805,30.5163346 248.532804,30.265 C248.233802,30.0136654 247.830806,29.888 247.323804,29.888 C246.816801,29.888 246.402972,30.0158321 246.082304,30.2715 C245.761636,30.5271679 245.601304,30.9019975 245.601304,31.396 Z M257.834304,34.438 C257.834304,33.631996 257.59814,32.9863358 257.125804,32.501 C256.653468,32.0156642 256.085807,31.773 255.422804,31.773 C254.759801,31.773 254.19214,32.0069977 253.719804,32.475 C253.247468,32.9430023 253.011304,33.579996 253.011304,34.386 C253.011304,35.192004 253.249635,35.8463308 253.726304,36.349 C254.202973,36.8516692 254.770634,37.103 255.429304,37.103 C256.087974,37.103 256.653468,36.8603358 257.125804,36.375 C257.59814,35.8896642 257.834304,35.244004 257.834304,34.438 Z M252.777304,37.0705 C252.127301,36.3728298 251.802304,35.4801721 251.802304,34.3925 C251.802304,33.3048279 252.125134,32.42517 252.770804,31.7535 C253.416474,31.08183 254.228966,30.746 255.208304,30.746 C255.814974,30.746 256.345802,30.8889986 256.800804,31.175 C257.255806,31.4610014 257.600303,31.8336644 257.834304,32.293 L257.834304,30.863 L259.030304,30.863 L259.030304,38 L257.834304,38 L257.834304,36.544 C257.600303,37.0120023 257.255806,37.3911652 256.800804,37.6815 C256.345802,37.9718348 255.814974,38.117 255.208304,38.117 C254.237632,38.117 253.427307,37.7681702 252.777304,37.0705 Z M261.578304,29.719 C261.352969,29.719 261.164471,29.6410008 261.012804,29.485 C260.861137,29.3289992 260.785304,29.1383345 260.785304,28.913 C260.785304,28.6876655 260.863303,28.4970008 261.019304,28.341 C261.175305,28.1849992 261.363803,28.107 261.584804,28.107 C261.805805,28.107 261.994303,28.1849992 262.150304,28.341 C262.306305,28.4970008 262.384304,28.6876655 262.384304,28.913 C262.384304,29.1383345 262.306305,29.3289992 262.150304,29.485 C261.994303,29.6410008 261.803638,29.719 261.578304,29.719 Z M260.980304,38 L260.980304,30.863 L262.163304,30.863 L262.163304,38 L260.980304,38 Z M265.296304,30.863 L265.296304,32.02 C265.78164,31.1706624 266.557299,30.746 267.623304,30.746 C268.411975,30.746 269.070635,31.008164 269.599304,31.5325 C270.127973,32.056836 270.392304,32.8043285 270.392304,33.775 L270.392304,38 L269.222304,38 L269.222304,33.97 C269.222304,33.2506631 269.048972,32.7046685 268.702304,32.332 C268.355636,31.9593315 267.876807,31.773 267.265804,31.773 C266.654801,31.773 266.173806,31.9593315 265.822804,32.332 C265.471802,32.7046685 265.296304,33.2506631 265.296304,33.97 L265.296304,38 L264.113304,38 L264.113304,30.863 L265.296304,30.863 Z M274.617304,37.038 L275.592304,37.038 L275.592304,38 L274.396304,38 C273.156964,38 272.537304,37.3890061 272.537304,36.167 L272.537304,31.825 L271.614304,31.825 L271.614304,30.863 L272.537304,30.863 L272.537304,29.095 L273.733304,29.095 L273.733304,30.863 L275.579304,30.863 L275.579304,31.825 L273.733304,31.825 L273.733304,36.167 C273.733304,36.4876683 273.798303,36.7129993 273.928304,36.843 C274.058305,36.9730006 274.287969,37.038 274.617304,37.038 Z M279.882304,38.117 C278.859632,38.117 278.02764,37.7790034 277.386304,37.103 C276.744967,36.4269966 276.424304,35.5343389 276.424304,34.425 C276.424304,33.3156611 276.749301,32.42517 277.399304,31.7535 C278.049307,31.08183 278.892132,30.746 279.927804,30.746 C280.963476,30.746 281.795467,31.0644968 282.423804,31.7015 C283.05214,32.3385032 283.366304,33.1509951 283.366304,34.139 C283.366304,34.3903346 283.348971,34.6243322 283.314304,34.841 L277.633304,34.841 C277.667971,35.5516702 277.891135,36.1128313 278.302804,36.5245 C278.714473,36.9361687 279.240967,37.142 279.882304,37.142 C280.36764,37.142 280.777136,37.0336677 281.110804,36.817 C281.444472,36.6003322 281.689303,36.3143351 281.845304,35.959 L283.119304,35.959 C282.893969,36.5830031 282.50614,37.0986646 281.955804,37.506 C281.405468,37.9133354 280.714308,38.117 279.882304,38.117 Z M281.481304,32.3385 C281.056635,31.9268313 280.53014,31.721 279.901804,31.721 C279.273467,31.721 278.751306,31.922498 278.335304,32.3255 C277.919302,32.728502 277.689637,33.2809965 277.646304,33.983 L282.131304,33.983 C282.122637,33.2983299 281.905973,32.7501687 281.481304,32.3385 Z M285.082304,33.749 L285.082304,32.735 L290.269304,32.735 L290.269304,33.749 L285.082304,33.749 Z M293.324304,36.778 C292.4403,35.911329 291.998304,34.81284 291.998304,33.4825 C291.998304,32.15216 292.4403,31.0558376 293.324304,30.1935 C294.208308,29.3311624 295.295964,28.9 296.587304,28.9 C297.523309,28.9 298.357467,29.1209978 299.089804,29.563 C299.822141,30.0050022 300.361636,30.6419958 300.708304,31.474 L299.278304,31.474 C298.740968,30.4599949 297.843977,29.953 296.587304,29.953 C295.607966,29.953 294.799807,30.2758301 294.162804,30.9215 C293.525801,31.5671699 293.207304,32.4229947 293.207304,33.489 C293.207304,34.5550053 293.525801,35.4129967 294.162804,36.063 C294.799807,36.7130032 295.607966,37.038 296.587304,37.038 C297.185307,37.038 297.718302,36.9058347 298.186304,36.6415 C298.654306,36.3771653 299.018303,35.9980025 299.278304,35.504 L300.708304,35.504 C300.361636,36.3360042 299.822141,36.9729978 299.089804,37.415 C298.357467,37.8570022 297.523309,38.078 296.587304,38.078 C295.295964,38.078 294.208308,37.644671 293.324304,36.778 Z M308.131304,34.438 C308.131304,33.631996 307.89514,32.9863358 307.422804,32.501 C306.950468,32.0156642 306.382807,31.773 305.719804,31.773 C305.056801,31.773 304.48914,32.0069977 304.016804,32.475 C303.544468,32.9430023 303.308304,33.579996 303.308304,34.386 C303.308304,35.192004 303.546635,35.8463308 304.023304,36.349 C304.499973,36.8516692 305.067634,37.103 305.726304,37.103 C306.384974,37.103 306.950468,36.8603358 307.422804,36.375 C307.89514,35.8896642 308.131304,35.244004 308.131304,34.438 Z M303.074304,37.0705 C302.424301,36.3728298 302.099304,35.4801721 302.099304,34.3925 C302.099304,33.3048279 302.422134,32.42517 303.067804,31.7535 C303.713474,31.08183 304.525966,30.746 305.505304,30.746 C306.111974,30.746 306.642802,30.8889986 307.097804,31.175 C307.552806,31.4610014 307.897303,31.8336644 308.131304,32.293 L308.131304,30.863 L309.327304,30.863 L309.327304,38 L308.131304,38 L308.131304,36.544 C307.897303,37.0120023 307.552806,37.3911652 307.097804,37.6815 C306.642802,37.9718348 306.111974,38.117 305.505304,38.117 C304.534632,38.117 303.724307,37.7681702 303.074304,37.0705 Z M313.617304,37.038 L314.592304,37.038 L314.592304,38 L313.396304,38 C312.156964,38 311.537304,37.3890061 311.537304,36.167 L311.537304,31.825 L310.614304,31.825 L310.614304,30.863 L311.537304,30.863 L311.537304,29.095 L312.733304,29.095 L312.733304,30.863 L314.579304,30.863 L314.579304,31.825 L312.733304,31.825 L312.733304,36.167 C312.733304,36.4876683 312.798303,36.7129993 312.928304,36.843 C313.058305,36.9730006 313.287969,37.038 313.617304,37.038 Z M317.075304,28.38 L317.075304,32.02 C317.56064,31.1706624 318.336299,30.746 319.402304,30.746 C320.190975,30.746 320.849635,31.008164 321.378304,31.5325 C321.906973,32.056836 322.171304,32.8043285 322.171304,33.775 L322.171304,38 L321.001304,38 L321.001304,33.97 C321.001304,33.2506631 320.827972,32.7046685 320.481304,32.332 C320.134636,31.9593315 319.655807,31.773 319.044804,31.773 C318.433801,31.773 317.952806,31.9593315 317.601804,32.332 C317.250802,32.7046685 317.075304,33.2506631 317.075304,33.97 L317.075304,38 L315.892304,38 L315.892304,28.38 L317.075304,28.38 Z M327.046304,38.117 C326.023632,38.117 325.19164,37.7790034 324.550304,37.103 C323.908967,36.4269966 323.588304,35.5343389 323.588304,34.425 C323.588304,33.3156611 323.913301,32.42517 324.563304,31.7535 C325.213307,31.08183 326.056132,30.746 327.091804,30.746 C328.127476,30.746 328.959467,31.0644968 329.587804,31.7015 C330.21614,32.3385032 330.530304,33.1509951 330.530304,34.139 C330.530304,34.3903346 330.512971,34.6243322 330.478304,34.841 L324.797304,34.841 C324.831971,35.5516702 325.055135,36.1128313 325.466804,36.5245 C325.878473,36.9361687 326.404967,37.142 327.046304,37.142 C327.53164,37.142 327.941136,37.0336677 328.274804,36.817 C328.608472,36.6003322 328.853303,36.3143351 329.009304,35.959 L330.283304,35.959 C330.057969,36.5830031 329.67014,37.0986646 329.119804,37.506 C328.569468,37.9133354 327.878308,38.117 327.046304,38.117 Z M328.645304,32.3385 C328.220635,31.9268313 327.69414,31.721 327.065804,31.721 C326.437467,31.721 325.915306,31.922498 325.499304,32.3255 C325.083302,32.728502 324.853637,33.2809965 324.810304,33.983 L329.295304,33.983 C329.286637,33.2983299 329.069973,32.7501687 328.645304,32.3385 Z M333.182304,30.863 L333.182304,32.072 C333.606973,31.1879956 334.330632,30.746 335.353304,30.746 L335.353304,31.981 L335.041304,31.981 C334.434634,31.981 333.973139,32.1391651 333.656804,32.4555 C333.340469,32.7718349 333.182304,33.3199961 333.182304,34.1 L333.182304,38 L331.999304,38 L331.999304,30.863 L333.182304,30.863 Z M337.381304,29.719 C337.155969,29.719 336.967471,29.6410008 336.815804,29.485 C336.664137,29.3289992 336.588304,29.1383345 336.588304,28.913 C336.588304,28.6876655 336.666303,28.4970008 336.822304,28.341 C336.978305,28.1849992 337.166803,28.107 337.387804,28.107 C337.608805,28.107 337.797303,28.1849992 337.953304,28.341 C338.109305,28.4970008 338.187304,28.6876655 338.187304,28.913 C338.187304,29.1383345 338.109305,29.3289992 337.953304,29.485 C337.797303,29.6410008 337.606638,29.719 337.381304,29.719 Z M336.783304,38 L336.783304,30.863 L337.966304,30.863 L337.966304,38 L336.783304,38 Z M341.099304,30.863 L341.099304,32.02 C341.58464,31.1706624 342.360299,30.746 343.426304,30.746 C344.214975,30.746 344.873635,31.008164 345.402304,31.5325 C345.930973,32.056836 346.195304,32.8043285 346.195304,33.775 L346.195304,38 L345.025304,38 L345.025304,33.97 C345.025304,33.2506631 344.851972,32.7046685 344.505304,32.332 C344.158636,31.9593315 343.679807,31.773 343.068804,31.773 C342.457801,31.773 341.976806,31.9593315 341.625804,32.332 C341.274802,32.7046685 341.099304,33.2506631 341.099304,33.97 L341.099304,38 L339.916304,38 L339.916304,30.863 L341.099304,30.863 Z M351.070304,38.117 C350.047632,38.117 349.21564,37.7790034 348.574304,37.103 C347.932967,36.4269966 347.612304,35.5343389 347.612304,34.425 C347.612304,33.3156611 347.937301,32.42517 348.587304,31.7535 C349.237307,31.08183 350.080132,30.746 351.115804,30.746 C352.151476,30.746 352.983467,31.0644968 353.611804,31.7015 C354.24014,32.3385032 354.554304,33.1509951 354.554304,34.139 C354.554304,34.3903346 354.536971,34.6243322 354.502304,34.841 L348.821304,34.841 C348.855971,35.5516702 349.079135,36.1128313 349.490804,36.5245 C349.902473,36.9361687 350.428967,37.142 351.070304,37.142 C351.55564,37.142 351.965136,37.0336677 352.298804,36.817 C352.632472,36.6003322 352.877303,36.3143351 353.033304,35.959 L354.307304,35.959 C354.081969,36.5830031 353.69414,37.0986646 353.143804,37.506 C352.593468,37.9133354 351.902308,38.117 351.070304,38.117 Z M352.669304,32.3385 C352.244635,31.9268313 351.71814,31.721 351.089804,31.721 C350.461467,31.721 349.939306,31.922498 349.523304,32.3255 C349.107302,32.728502 348.877637,33.2809965 348.834304,33.983 L353.319304,33.983 C353.310637,33.2983299 353.093973,32.7501687 352.669304,32.3385 Z M355.555304,37.129 L356.764304,37.129 C357.197639,38.9490091 356.807643,39.859 355.594304,39.859 L355.594304,39.287 C355.810972,39.287 355.969137,39.2350005 356.068804,39.131 C356.168471,39.0269995 356.218304,38.8623345 356.218304,38.637 L356.218304,38.338 L355.555304,38.338 L355.555304,37.129 Z M367.248804,33.3005 C366.906469,32.9148314 366.42114,32.722 365.792804,32.722 C365.164467,32.722 364.635806,32.8974982 364.206804,33.2485 C363.777802,33.5995018 363.563304,34.1129966 363.563304,34.789 C363.563304,35.4650034 363.749635,36.0023313 364.122304,36.401 C364.494972,36.7996687 365.014967,36.999 365.682304,36.999 C366.349641,36.999 366.863135,36.8105019 367.222804,36.4335 C367.582472,36.0564981 367.762304,35.5365033 367.762304,34.8735 C367.762304,34.2104967 367.591139,33.6861686 367.248804,33.3005 Z M365.721304,29.29 C364.9413,29.29 364.364972,29.5759971 363.992304,30.148 C363.619635,30.7200029 363.420304,31.6906598 363.394304,33.06 C363.628305,32.6353312 363.974968,32.3038345 364.434304,32.0655 C364.89364,31.8271655 365.404968,31.708 365.968304,31.708 C366.834975,31.708 367.536968,31.9874972 368.074304,32.5465 C368.61164,33.1055028 368.880304,33.8594953 368.880304,34.8085 C368.880304,35.7575047 368.615973,36.5266637 368.087304,37.116 C367.558635,37.7053363 366.800309,38 365.812304,38 C364.234963,38 363.225306,37.3326733 362.783304,35.998 C362.531969,35.2439962 362.406304,34.1823402 362.406304,32.813 C362.406304,31.4436598 362.674968,30.3473374 363.212304,29.524 C363.74964,28.7006625 364.585965,28.289 365.721304,28.289 C366.553308,28.289 367.214135,28.5121644 367.703804,28.9585 C368.193473,29.4048356 368.477304,29.95733 368.555304,30.616 L367.489304,30.616 C367.376637,30.1653311 367.181639,29.8316677 366.904304,29.615 C366.626969,29.3983322 366.23264,29.29 365.721304,29.29 Z M370.908304,28.497 L376.537304,28.497 L376.537304,29.524 L372.000304,29.524 L372.000304,32.501 C372.190972,32.2149986 372.481302,31.9766676 372.871304,31.786 C373.261306,31.5953324 373.705468,31.5 374.203804,31.5 C374.70214,31.5 375.157135,31.5931657 375.568804,31.7795 C375.980473,31.9658343 376.298969,32.2193317 376.524304,32.54 C376.948973,33.1640031 377.161304,33.8746627 377.161304,34.672 C377.161304,35.6513382 376.888307,36.4508302 376.342304,37.0705 C375.796301,37.6901698 375.031476,38 374.047804,38 C373.064132,38 372.292807,37.7703356 371.733804,37.311 C371.174801,36.8516644 370.825971,36.2450038 370.687304,35.491 L371.818304,35.491 C371.939638,35.9590023 372.188802,36.327332 372.565804,36.596 C372.942806,36.864668 373.441134,36.999 374.060804,36.999 C374.680474,36.999 375.165802,36.7910021 375.516804,36.375 C375.867806,35.9589979 376.043304,35.4000035 376.043304,34.698 C376.043304,33.9959965 375.867806,33.4565019 375.516804,33.0795 C375.165802,32.7024981 374.643641,32.514 373.950304,32.514 C373.482302,32.514 373.079306,32.6353321 372.741304,32.878 C372.403302,33.1206679 372.151971,33.4499979 371.987304,33.866 L370.908304,33.866 L370.908304,28.497 Z M380.755804,28.744 C381.141473,28.5793325 381.622468,28.497 382.198804,28.497 C382.77514,28.497 383.282135,28.6161655 383.719804,28.8545 C384.157473,29.0928345 384.493303,29.4373311 384.727304,29.888 C385.151973,30.7200042 385.364304,31.837993 385.364304,33.242 C385.364304,35.0446757 385.04364,36.3229962 384.402304,37.077 C383.873635,37.6836697 383.106642,37.987 382.101304,37.987 C380.255295,37.987 379.193639,36.9080108 378.916304,34.75 C378.864304,34.2993311 378.838304,33.7945028 378.838304,33.2355 C378.838304,32.6764972 378.86647,32.1738356 378.922804,31.7275 C378.979138,31.2811644 379.083137,30.8500021 379.234804,30.434 C379.386471,30.0179979 379.581469,29.6735014 379.819804,29.4005 C380.058138,29.1274986 380.370135,28.9086675 380.755804,28.744 Z M383.225804,29.8425 C382.926802,29.647499 382.573639,29.55 382.166304,29.55 C381.758969,29.55 381.423139,29.6193326 381.158804,29.758 C380.894469,29.8966674 380.688638,30.0743322 380.541304,30.291 C380.39397,30.5076677 380.276971,30.787165 380.190304,31.1295 C380.103637,31.471835 380.049471,31.8011651 380.027804,32.1175 C380.006137,32.4338349 379.995304,32.8086645 379.995304,33.242 C379.995304,33.6753355 380.006137,34.0501651 380.027804,34.3665 C380.049471,34.6828349 380.103637,35.012165 380.190304,35.3545 C380.276971,35.696835 380.39397,35.9763322 380.541304,36.193 C380.688638,36.4096677 380.894469,36.5873326 381.158804,36.726 C381.423139,36.8646674 381.737302,36.934 382.101304,36.934 C382.465306,36.934 382.779469,36.8646674 383.043804,36.726 C383.308139,36.5873326 383.516137,36.4096677 383.667804,36.193 C383.819471,35.9763322 383.934304,35.6946684 384.012304,35.348 C384.150971,34.7933306 384.220304,34.1650035 384.220304,33.463 C384.220304,32.7609965 384.196471,32.2193352 384.148804,31.838 C384.101137,31.4566648 384.010138,31.0775019 383.875804,30.7005 C383.74147,30.3234981 383.524805,30.037501 383.225804,29.8425 Z M389.023804,28.744 C389.409473,28.5793325 389.890468,28.497 390.466804,28.497 C391.04314,28.497 391.550135,28.6161655 391.987804,28.8545 C392.425473,29.0928345 392.761303,29.4373311 392.995304,29.888 C393.419973,30.7200042 393.632304,31.837993 393.632304,33.242 C393.632304,35.0446757 393.31164,36.3229962 392.670304,37.077 C392.141635,37.6836697 391.374642,37.987 390.369304,37.987 C388.523295,37.987 387.461639,36.9080108 387.184304,34.75 C387.132304,34.2993311 387.106304,33.7945028 387.106304,33.2355 C387.106304,32.6764972 387.13447,32.1738356 387.190804,31.7275 C387.247138,31.2811644 387.351137,30.8500021 387.502804,30.434 C387.654471,30.0179979 387.849469,29.6735014 388.087804,29.4005 C388.326138,29.1274986 388.638135,28.9086675 389.023804,28.744 Z M391.493804,29.8425 C391.194802,29.647499 390.841639,29.55 390.434304,29.55 C390.026969,29.55 389.691139,29.6193326 389.426804,29.758 C389.162469,29.8966674 388.956638,30.0743322 388.809304,30.291 C388.66197,30.5076677 388.544971,30.787165 388.458304,31.1295 C388.371637,31.471835 388.317471,31.8011651 388.295804,32.1175 C388.274137,32.4338349 388.263304,32.8086645 388.263304,33.242 C388.263304,33.6753355 388.274137,34.0501651 388.295804,34.3665 C388.317471,34.6828349 388.371637,35.012165 388.458304,35.3545 C388.544971,35.696835 388.66197,35.9763322 388.809304,36.193 C388.956638,36.4096677 389.162469,36.5873326 389.426804,36.726 C389.691139,36.8646674 390.005302,36.934 390.369304,36.934 C390.733306,36.934 391.047469,36.8646674 391.311804,36.726 C391.576139,36.5873326 391.784137,36.4096677 391.935804,36.193 C392.087471,35.9763322 392.202304,35.6946684 392.280304,35.348 C392.418971,34.7933306 392.488304,34.1650035 392.488304,33.463 C392.488304,32.7609965 392.464471,32.2193352 392.416804,31.838 C392.369137,31.4566648 392.278138,31.0775019 392.143804,30.7005 C392.00947,30.3234981 391.792805,30.037501 391.493804,29.8425 Z M397.291804,28.744 C397.677473,28.5793325 398.158468,28.497 398.734804,28.497 C399.31114,28.497 399.818135,28.6161655 400.255804,28.8545 C400.693473,29.0928345 401.029303,29.4373311 401.263304,29.888 C401.687973,30.7200042 401.900304,31.837993 401.900304,33.242 C401.900304,35.0446757 401.57964,36.3229962 400.938304,37.077 C400.409635,37.6836697 399.642642,37.987 398.637304,37.987 C396.791295,37.987 395.729639,36.9080108 395.452304,34.75 C395.400304,34.2993311 395.374304,33.7945028 395.374304,33.2355 C395.374304,32.6764972 395.40247,32.1738356 395.458804,31.7275 C395.515138,31.2811644 395.619137,30.8500021 395.770804,30.434 C395.922471,30.0179979 396.117469,29.6735014 396.355804,29.4005 C396.594138,29.1274986 396.906135,28.9086675 397.291804,28.744 Z M399.761804,29.8425 C399.462802,29.647499 399.109639,29.55 398.702304,29.55 C398.294969,29.55 397.959139,29.6193326 397.694804,29.758 C397.430469,29.8966674 397.224638,30.0743322 397.077304,30.291 C396.92997,30.5076677 396.812971,30.787165 396.726304,31.1295 C396.639637,31.471835 396.585471,31.8011651 396.563804,32.1175 C396.542137,32.4338349 396.531304,32.8086645 396.531304,33.242 C396.531304,33.6753355 396.542137,34.0501651 396.563804,34.3665 C396.585471,34.6828349 396.639637,35.012165 396.726304,35.3545 C396.812971,35.696835 396.92997,35.9763322 397.077304,36.193 C397.224638,36.4096677 397.430469,36.5873326 397.694804,36.726 C397.959139,36.8646674 398.273302,36.934 398.637304,36.934 C399.001306,36.934 399.315469,36.8646674 399.579804,36.726 C399.844139,36.5873326 400.052137,36.4096677 400.203804,36.193 C400.355471,35.9763322 400.470304,35.6946684 400.548304,35.348 C400.686971,34.7933306 400.756304,34.1650035 400.756304,33.463 C400.756304,32.7609965 400.732471,32.2193352 400.684804,31.838 C400.637137,31.4566648 400.546138,31.0775019 400.411804,30.7005 C400.27747,30.3234981 400.060805,30.037501 399.761804,29.8425 Z M407.256304,29.94 L407.256304,28.991 L413.197304,28.991 L413.197304,29.94 L410.818304,29.94 L410.818304,38 L409.635304,38 L409.635304,29.94 L407.256304,29.94 Z M420.321304,34.438 C420.321304,33.631996 420.08514,32.9863358 419.612804,32.501 C419.140468,32.0156642 418.572807,31.773 417.909804,31.773 C417.246801,31.773 416.67914,32.0069977 416.206804,32.475 C415.734468,32.9430023 415.498304,33.579996 415.498304,34.386 C415.498304,35.192004 415.736635,35.8463308 416.213304,36.349 C416.689973,36.8516692 417.257634,37.103 417.916304,37.103 C418.574974,37.103 419.140468,36.8603358 419.612804,36.375 C420.08514,35.8896642 420.321304,35.244004 420.321304,34.438 Z M415.264304,37.0705 C414.614301,36.3728298 414.289304,35.4801721 414.289304,34.3925 C414.289304,33.3048279 414.612134,32.42517 415.257804,31.7535 C415.903474,31.08183 416.715966,30.746 417.695304,30.746 C418.301974,30.746 418.832802,30.8889986 419.287804,31.175 C419.742806,31.4610014 420.087303,31.8336644 420.321304,32.293 L420.321304,30.863 L421.517304,30.863 L421.517304,38 L420.321304,38 L420.321304,36.544 C420.087303,37.0120023 419.742806,37.3911652 419.287804,37.6815 C418.832802,37.9718348 418.301974,38.117 417.695304,38.117 C416.724632,38.117 415.914307,37.7681702 415.264304,37.0705 Z M424.650304,30.863 L424.650304,32.072 C425.074973,31.1879956 425.798632,30.746 426.821304,30.746 L426.821304,31.981 L426.509304,31.981 C425.902634,31.981 425.441139,32.1391651 425.124804,32.4555 C424.808469,32.7718349 424.650304,33.3199961 424.650304,34.1 L424.650304,38 L423.467304,38 L423.467304,30.863 L424.650304,30.863 Z M433.548804,36.3555 C434.02114,35.8571642 434.257304,35.2028374 434.257304,34.3925 C434.257304,33.5821626 434.02114,32.9430023 433.548804,32.475 C433.076468,32.0069977 432.508807,31.773 431.845804,31.773 C431.182801,31.773 430.61514,32.0156642 430.142804,32.501 C429.670468,32.9863358 429.434304,33.6298293 429.434304,34.4315 C429.434304,35.2331707 429.670468,35.8788309 430.142804,36.3685 C430.61514,36.8581691 431.182801,37.103 431.845804,37.103 C432.508807,37.103 433.076468,36.8538358 433.548804,36.3555 Z M432.073304,30.746 C433.052642,30.746 433.865134,31.08183 434.510804,31.7535 C435.156474,32.42517 435.479304,33.3048279 435.479304,34.3925 C435.479304,35.4801721 435.154307,36.3728298 434.504304,37.0705 C433.854301,37.7681702 433.043975,38.117 432.073304,38.117 C431.466634,38.117 430.935806,37.9718348 430.480804,37.6815 C430.025802,37.3911652 429.676972,37.0120023 429.434304,36.544 L429.434304,38 L428.251304,38 L428.251304,28.38 L429.434304,28.38 L429.434304,32.293 C429.676972,31.8336644 430.025802,31.4610014 430.480804,31.175 C430.935806,30.8889986 431.466634,30.746 432.073304,30.746 Z M439.951304,38.117 C438.928632,38.117 438.09664,37.7790034 437.455304,37.103 C436.813967,36.4269966 436.493304,35.5343389 436.493304,34.425 C436.493304,33.3156611 436.818301,32.42517 437.468304,31.7535 C438.118307,31.08183 438.961132,30.746 439.996804,30.746 C441.032476,30.746 441.864467,31.0644968 442.492804,31.7015 C443.12114,32.3385032 443.435304,33.1509951 443.435304,34.139 C443.435304,34.3903346 443.417971,34.6243322 443.383304,34.841 L437.702304,34.841 C437.736971,35.5516702 437.960135,36.1128313 438.371804,36.5245 C438.783473,36.9361687 439.309967,37.142 439.951304,37.142 C440.43664,37.142 440.846136,37.0336677 441.179804,36.817 C441.513472,36.6003322 441.758303,36.3143351 441.914304,35.959 L443.188304,35.959 C442.962969,36.5830031 442.57514,37.0986646 442.024804,37.506 C441.474468,37.9133354 440.783308,38.117 439.951304,38.117 Z M441.550304,32.3385 C441.125635,31.9268313 440.59914,31.721 439.970804,31.721 C439.342467,31.721 438.820306,31.922498 438.404304,32.3255 C437.988302,32.728502 437.758637,33.2809965 437.715304,33.983 L442.200304,33.983 C442.191637,33.2983299 441.974973,32.7501687 441.550304,32.3385 Z M444.644304,32.878 C444.644304,32.279997 444.893468,31.7751687 445.391804,31.3635 C445.89014,30.9518313 446.5358,30.746 447.328804,30.746 C448.121808,30.746 448.743635,30.947498 449.194304,31.3505 C449.644973,31.753502 449.89197,32.3059965 449.935304,33.008 L448.713304,33.008 C448.695971,32.6093313 448.561639,32.2886679 448.310304,32.046 C448.058969,31.8033321 447.710139,31.682 447.263804,31.682 C446.817468,31.682 446.466472,31.7881656 446.210804,32.0005 C445.955136,32.2128344 445.827304,32.4858317 445.827304,32.8195 C445.827304,33.1531683 445.972469,33.4109991 446.262804,33.593 C446.553139,33.7750009 446.904135,33.9071663 447.315804,33.9895 C447.727473,34.0718337 448.139135,34.1671661 448.550804,34.2755 C448.962473,34.3838339 449.313469,34.5874985 449.603804,34.8865 C449.894139,35.1855015 450.039304,35.6101639 450.039304,36.1605 C450.039304,36.7108361 449.79014,37.1744981 449.291804,37.5515 C448.793468,37.9285019 448.145641,38.117 447.348304,38.117 C446.550967,38.117 445.911806,37.9176687 445.430804,37.519 C444.949802,37.1203313 444.687637,36.5700035 444.644304,35.868 L445.866304,35.868 C445.883637,36.2666687 446.024469,36.5851655 446.288804,36.8235 C446.553139,37.0618345 446.917135,37.181 447.380804,37.181 C447.844473,37.181 448.208469,37.0813343 448.472804,36.882 C448.737139,36.6826657 448.869304,36.4291682 448.869304,36.1215 C448.869304,35.8138318 448.765305,35.5690009 448.557304,35.387 C448.349303,35.2049991 448.089305,35.0793337 447.777304,35.01 C447.465302,34.9406663 447.125139,34.8583338 446.756804,34.763 C446.388469,34.6676662 446.048305,34.5658339 445.736304,34.4575 C445.424302,34.3491661 445.164305,34.160668 444.956304,33.892 C444.748303,33.623332 444.644304,33.2853354 444.644304,32.878 Z" id="28-Rue-Sainte-Cather" fill="#7F7F7F"></path>
                        <g id="Group" transform="translate(0.954304, 0.000000)">
                            <g id="logo">
                                <g id="Group-10" transform="translate(0.000000, 3.769259)" stroke-width="1.51874996" stroke="#FF475E">
                                    <polyline id="Stroke-2" points="31.3312148 17.7554764 31.3312148 17.6517854 26.5536422 12.9586708 23.0269374 12.9590085 16.02304 5.33721468 10.4212974 11.1709302 8.699377 8.92147757 5.27100874 12.2892391 0.31189177 17.160351"></polyline>
                                    <path d="M4.04713182,0.27321054 L0.0858209524,0.27321054 L0.0858209524,15.1891753 C0.0858209524,33.0331437 15.863673,37.7103838 15.863673,37.7103838 C15.863673,37.7103838 31.6418688,33.0331437 31.6418688,15.1891753 L31.6418688,0.27321054 L27.6805579,0.27321054 L4.04713182,0.27321054 Z" id="Stroke-4"></path>
                                    <path d="M26.9281805,5.83118231 C26.9281805,6.76068584 26.161087,7.51421868 25.214856,7.51421868 C24.268625,7.51421868 23.5018753,6.76068584 23.5018753,5.83118231 C23.5018753,4.90167878 24.268625,4.14814594 25.214856,4.14814594 C26.161087,4.14814594 26.9281805,4.90167878 26.9281805,5.83118231 Z" id="Stroke-8"></path>
                                </g>
                                <g id="Group-18" transform="translate(0.000000, 9.511104)">
                                    <mask id="mask-2" fill="white">
                                        <use xlink:href="#path-1"></use>
                                    </mask>
                                    <g id="Clip-16"></g>
                                    <path d="M16.5690139,3.06607818 L-0.0416039072,20.0285044" id="Stroke-17" stroke="#FF475E" stroke-width="1.51874996" mask="url(#mask-2)"></path>
                                    <path d="M16.5690139,6.99022457 L-0.0416039072,23.9526507" id="Stroke-21" stroke="#FF475E" stroke-width="1.51874996" mask="url(#mask-2)"></path>
                                    <path d="M16.5690139,10.914371 L-0.0416039072,27.8767971" id="Stroke-25" stroke="#FF475E" stroke-width="1.51874996" mask="url(#mask-2)"></path>
                                    <path d="M16.5690139,-0.858068212 L-0.0416039072,16.104358" id="Stroke-13" stroke="#FF475E" stroke-width="1.51874996" mask="url(#mask-2)"></path>
                                </g>
                                <g id="Group-68" transform="translate(0.000000, 0.067213)">
                                    <path d="M12.4888706,1.01712421 L20.2565298,1.01712421" id="Stroke-32" stroke="#FF475E" stroke-width="1.51874996"></path>
                                    <path d="M10.8754676,33.3971721 L10.8754676,38.8908467" id="Stroke-34" stroke="#FF475E" stroke-width="1.51874996"></path>
                                    <polyline id="Stroke-36" stroke="#FF475E" stroke-width="1.51874996" points="8.41416674 35.3023618 10.8670781 32.8928131 13.3158634 35.297971"></polyline>
                                    <polyline id="Stroke-38" stroke="#FF475E" stroke-width="1.51874996" points="8.41416674 31.9222722 10.8670781 29.5127235 13.3158634 31.9178814"></polyline>
                                    <path d="M15.9441989,26.4222896 L15.9441989,41.1419205" id="Stroke-40" stroke="#FF475E" stroke-width="1.51874996"></path>
                                    <path d="M20.5080609,26.9953631 L0.872650549,26.9953631" id="Stroke-44" stroke="#FF475E" stroke-width="1.51874996"></path>
                                    <path d="M23.5006344,21.6043102 L0.31189177,21.6043102" id="Stroke-48" stroke="#FF475E" stroke-width="1.51874996"></path>
                                    <path d="M16.1251243,27.0753436 C16.991242,23.8491017 19.8151502,21.5685756 23.0568166,21.5685756 C26.3352733,21.5685756 29.1289241,23.8369425 29.9898842,27.0753436 L16.1251243,27.0753436 Z" id="Fill-50" fill="#FFFFFF"></path>
                                    <path d="M23.0568854,20.8086592 C19.1684673,20.8086592 15.9302392,23.7147088 15.2240043,27.56107 L15.2240043,27.8353276 L30.9358402,27.8353276 C30.3361938,23.8538641 27.0371071,20.8086592 23.0568854,20.8086592 M23.0568854,22.3285596 C25.6466426,22.3285596 27.8984111,23.9274948 28.9140966,26.3154272 L17.2044878,26.3154272 C18.2287691,23.9349254 20.4980732,22.3285596 23.0568854,22.3285596" id="Fill-52" fill="#FF475E"></path>
                                    <path id="Stroke-56" stroke="#FF475E" stroke-width="1.51874996"></path>
                                    <path d="M23.3349783,26.8611052 L27.2804728,22.9853592" id="Stroke-60" stroke="#FF475E" stroke-width="1.51874996"></path>
                                    <path d="M18.8978356,22.8107396 L23.1579382,26.995532" id="Stroke-64" stroke="#FF475E" stroke-width="1.51874996"></path>
                                    <path d="M21.3256127,38.4693614 L21.3256127,33.0679731 C21.3256127,32.2249351 22.1460005,31.5416554 23.1579038,31.5416554 L23.1579038,31.5416554 C24.1694632,31.5416554 24.989851,32.2249351 24.989851,33.0679731 L24.989851,35.6754467" id="Stroke-66" stroke="#FF475E" stroke-width="1.51874996"></path>
                                </g>
                            </g>
                        </g>
                        <rect id="Rectangle-10" fill="#EAEAEA" x="178.954304" y="2" width="1" height="37"></rect>
                    </g>
                </g>
            </g>
        </g>
    </g>
</svg>